<?xml version="1.0" encoding="utf-8"?>
<!-- Generator: Adobe Illustrator 16.0.3, SVG Export Plug-In . SVG Version: 6.00 Build 0)  -->
<!DOCTYPE svg PUBLIC "-//W3C//DTD SVG 1.1//EN" "http://www.w3.org/Graphics/SVG/1.1/DTD/svg11.dtd">
<svg version="1.1" id="Layer_1" xmlns="http://www.w3.org/2000/svg" xmlns:xlink="http://www.w3.org/1999/xlink" x="0px" y="0px"
	 width="122px" height="95px" viewBox="0 0 122 95" enable-background="new 0 0 122 95" xml:space="preserve">
<g>
	<path fill="#FFFFFF" d="M116.1,37.324c0,5.673-0.049,11.341-0.029,17.013c0,0.345,0.155,0.685,0.25,1.026
		c-0.096,0.405-0.286,0.812-0.288,1.219c-0.019,5.889-0.021,11.779-0.018,17.667c0,1.29,0.524,1.994,1.462,1.988
		s1.481-0.727,1.481-1.988c0.001-6.793,0.001-13.586-0.012-20.379c0-0.335-0.121-0.67-0.185-1.004
		c0.064-0.422,0.186-0.841,0.188-1.259c0.014-5.389,0.002-10.776,0.021-16.165c0.002-0.4,0.065-0.906,0.307-1.187
		c2.486-2.881,1.837-5.774-1.626-7.362c-5.479-2.514-10.938-5.069-16.4-7.617c-6.412-2.99-12.818-5.993-19.229-8.989
		c-5.886-2.75-11.79-5.469-17.654-8.266c-2.277-1.087-4.475-1.223-6.744-0.07c-1.253,0.635-2.531,1.23-3.808,1.824
		c-7.592,3.533-15.188,7.053-22.773,10.598c-0.295,0.138-0.49,0.493-0.732,0.747c-0.33,0.022-0.702-0.048-0.983,0.083
		c-8.611,3.992-17.217,7.997-25.813,12.019c-1.58,0.74-2.419,2.012-2.414,3.789c0.006,1.806,0.826,3.095,2.467,3.862
		c2.354,1.097,4.708,2.193,7.064,3.296c8.993,4.197,17.985,8.392,26.984,12.575c0.406,0.188,0.882,0.226,1.324,0.329
		c0.25,0.223,0.465,0.516,0.753,0.649c5.968,2.809,11.96,5.565,17.916,8.4c2.247,1.069,4.406,1.146,6.618-0.021
		c0.861-0.453,1.77-0.807,2.643-1.241c1.604-0.792,3.198-1.607,4.797-2.413c0.372-0.113,0.762-0.19,1.112-0.353
		c6.405-2.984,12.804-5.981,19.205-8.97c6.21-2.896,12.464-5.797,18.675-8.687c1.749-0.814,3.479-1.608,5.446-2.48
		C116.1,36.539,116.1,36.931,116.1,37.324z M105.736,31.908c-12.331,5.756-24.665,11.5-36.992,17.257
		c-0.994,0.468-1.936,1.043-2.9,1.565c-1.224,0.494-2.48,0.924-3.659,1.505c-0.893,0.44-1.635,0.433-2.536,0.002
		c-4.588-2.194-9.202-4.341-13.818-6.476c-0.38-0.175-0.851-0.15-1.282-0.217l0,0c-0.194-0.212-0.351-0.511-0.594-0.625
		c-7.025-3.299-14.059-6.571-21.09-9.857c-2.776-1.293-5.55-2.602-8.547-4.006c0.958-0.481,1.722-0.895,2.509-1.262
		c6.147-2.873,12.298-5.737,18.443-8.615c0.231-0.107,0.402-0.348,0.601-0.522c0.436-0.111,0.907-0.156,1.311-0.346
		c7.627-3.538,15.242-7.102,22.883-10.613c0.474-0.218,1.223-0.225,1.695-0.008c8.976,4.144,17.927,8.342,26.888,12.517
		c5.595,2.606,11.195,5.198,16.791,7.802c0.617,0.286,1.222,0.598,2.023,0.995C106.779,31.363,106.269,31.66,105.736,31.908z"/>
	<path fill="#FFFFFF" d="M93.471,49.631c0-0.414,0-0.83,0-1.383c-1.968,0.947-3.81,1.839-5.686,2.655
		c-0.688,0.299-0.93,0.666-0.919,1.446c0.048,3.218,0.021,6.436,0.047,9.652c0.023,3.24-1.25,5.889-3.587,8.053
		c-3.637,3.365-8.157,4.83-12.867,5.792c-4.846,0.992-9.755,1.144-14.669,0.636c-5.213-0.541-10.259-1.701-14.777-4.524
		c-4.014-2.507-6.424-5.952-6.251-10.885c0.054-1.553,0.024-3.109-0.004-4.662c-0.006-0.309-0.177-0.619-0.272-0.927
		c0.096-0.734,0.159-1.472,0.292-2.197c0.278-1.51-0.091-2.353-1.591-2.865c-1.606-0.552-3.668-1.408-4.652-2.217
		c0,0.595,0,0.98,0,1.369c0,3.505-0.186,7.004-0.167,10.51c0.003,0.516,0.019,1.037,0.079,1.555
		c-0.063,0.389-0.226,0.778-0.231,1.167c-0.031,3.485,1.032,6.608,3.167,9.345c2.939,3.77,6.881,6.136,11.266,7.771
		c9.362,3.491,18.991,4.087,28.789,2.371c5.39-0.945,10.509-2.645,14.963-5.936c4.631-3.421,7.229-7.891,7.158-13.811
		C93.513,58.236,93.471,53.932,93.471,49.631z"/>
	<path fill="#FFFFFF" d="M121.078,80.735c-0.271-1.709-1.768-2.868-3.304-2.961c-1.869-0.111-3.192,0.692-3.908,2.461
		c-0.954,2.364-0.92,4.814-0.368,7.243c0.368,1.616,0.913,3.19,1.377,4.784c0.11-0.03,0.22-0.062,0.328-0.09
		c0.045-0.174,0.081-0.348,0.138-0.514c0.294-0.904,0.712-1.771,1.837-1.631c1.045,0.131,1.193,1.062,1.241,1.906
		c0.061,1.033,0.015,2.069,0.015,3.394c0.431-0.553,0.734-0.833,0.905-1.174C121.462,89.883,121.813,85.359,121.078,80.735z"/>
</g>
</svg>
