<?xml version="1.0" encoding="utf-8"?>
<!-- Generator: Adobe Illustrator 16.0.3, SVG Export Plug-In . SVG Version: 6.00 Build 0)  -->
<!DOCTYPE svg PUBLIC "-//W3C//DTD SVG 1.1//EN" "http://www.w3.org/Graphics/SVG/1.1/DTD/svg11.dtd">
<svg version="1.1" id="Layer_1" xmlns="http://www.w3.org/2000/svg" xmlns:xlink="http://www.w3.org/1999/xlink" x="0px" y="0px"
	 width="122px" height="95px" viewBox="0 0 122 95" enable-background="new 0 0 122 95" xml:space="preserve">
<g>
	<g>
		<g>
			<path fill="#FFFFFF" d="M98.318,30.505c0-0.02-0.007-0.04-0.007-0.06c-0.01-0.099-0.02-0.202-0.048-0.296
				c-0.015-0.038-0.028-0.079-0.045-0.121c-0.029-0.073-0.056-0.146-0.096-0.215c-0.026-0.04-0.06-0.073-0.086-0.114
				c-0.05-0.053-0.09-0.114-0.143-0.167c-0.031-0.035-0.081-0.06-0.116-0.093c-0.039-0.03-0.072-0.06-0.112-0.089
				c-0.02-0.013-0.046-0.02-0.072-0.033c-0.014-0.012-0.035-0.027-0.054-0.033L60.421,11.409c-0.389-0.192-0.845-0.182-1.227,0.018
				L24.822,29.305c-0.021,0.005-0.027,0.018-0.041,0.025c-0.021,0.006-0.031,0.013-0.054,0.02c-0.045,0.03-0.08,0.068-0.12,0.103
				c-0.042,0.033-0.089,0.06-0.122,0.099c-0.054,0.046-0.093,0.106-0.133,0.169c-0.034,0.04-0.062,0.073-0.09,0.114
				c-0.038,0.075-0.074,0.147-0.099,0.229c-0.013,0.035-0.027,0.066-0.042,0.101c-0.026,0.112-0.045,0.231-0.045,0.354v43.995
				c0,0.522,0.294,0.999,0.758,1.234l35.748,17.866c0.021,0.017,0.041,0.005,0.061,0.017c0.182,0.079,0.362,0.131,0.559,0.131
				c0.186,0,0.374-0.052,0.549-0.131c0.021-0.012,0.04-0.012,0.06-0.017l35.748-17.866c0.462-0.235,0.76-0.712,0.76-1.234V30.505z
				 M59.844,14.179L93.827,30.54L61.202,46.853L28.479,30.492L59.844,14.179z M26.831,32.742L59.824,49.24v40.92L26.831,73.665
				V32.742z M95.573,73.665L85.91,78.49c-0.07-0.684-0.639-1.228-1.342-1.228c-0.76,0-1.378,0.619-1.378,1.377
				c0,0.396,0.177,0.748,0.437,0.994l-14.208,7.105c-0.083-0.682-0.639-1.226-1.344-1.226c-0.76,0-1.377,0.618-1.377,1.373
				c0,0.394,0.166,0.741,0.438,0.998l-4.567,2.275V49.24l0.155-0.072c-0.086,0.182-0.155,0.375-0.155,0.596
				c0,0.761,0.619,1.376,1.377,1.376c0.761,0,1.376-0.615,1.376-1.376c0-0.676-0.496-1.215-1.142-1.327l3.23-1.612
				c0.202,0.109,0.415,0.188,0.665,0.188c0.691,0,1.241-0.522,1.336-1.194l9.814-4.901c-0.095,0.182-0.156,0.384-0.156,0.599
				c0,0.758,0.616,1.375,1.377,1.375c0.758,0,1.38-0.617,1.38-1.375c0-0.677-0.506-1.216-1.149-1.33l3.225-1.612
				c0.205,0.117,0.428,0.195,0.667,0.195c0.697,0,1.25-0.523,1.339-1.195l9.666-4.832V73.665z M95.573,73.665"/>
		</g>
		<path fill="#FFFFFF" d="M90.064,41.516c0,0.758-0.609,1.375-1.364,1.375c-0.768,0-1.38-0.617-1.38-1.375
			c0-0.759,0.612-1.376,1.38-1.376C89.455,40.139,90.064,40.756,90.064,41.516L90.064,41.516z M90.064,41.516"/>
		<path fill="#FFFFFF" d="M94.194,37.392c0,0.76-0.619,1.377-1.377,1.377c-0.754,0-1.373-0.617-1.373-1.377
			c0-0.758,0.619-1.375,1.373-1.375C93.575,36.017,94.194,36.634,94.194,37.392L94.194,37.392z M94.194,37.392"/>
		<path fill="#FFFFFF" d="M73.572,49.764c0,0.761-0.618,1.376-1.377,1.376c-0.754,0-1.375-0.615-1.375-1.376
			c0-0.758,0.621-1.374,1.375-1.374C72.954,48.39,73.572,49.006,73.572,49.764L73.572,49.764z M73.572,49.764"/>
		<path fill="#FFFFFF" d="M65.321,58.018c0,0.758-0.615,1.372-1.376,1.372c-0.758,0-1.377-0.614-1.377-1.372
			s0.619-1.377,1.377-1.377C64.706,56.641,65.321,57.26,65.321,58.018L65.321,58.018z M65.321,58.018"/>
		<path fill="#FFFFFF" d="M73.572,58.018c0,0.758-0.618,1.372-1.377,1.372c-0.754,0-1.375-0.614-1.375-1.372
			s0.621-1.377,1.375-1.377C72.954,56.641,73.572,57.26,73.572,58.018L73.572,58.018z M73.572,58.018"/>
		<path fill="#FFFFFF" d="M90.064,58.018c0,0.758-0.609,1.372-1.364,1.372c-0.768,0-1.38-0.614-1.38-1.372s0.612-1.377,1.38-1.377
			C89.455,56.641,90.064,57.26,90.064,58.018L90.064,58.018z M90.064,58.018"/>
		<path fill="#FFFFFF" d="M69.442,53.887c0,0.769-0.609,1.377-1.367,1.377c-0.766,0-1.377-0.608-1.377-1.377
			c0-0.758,0.611-1.37,1.377-1.37C68.833,52.517,69.442,53.129,69.442,53.887L69.442,53.887z M69.442,53.887"/>
		<path fill="#FFFFFF" d="M77.694,45.643c0,0.759-0.61,1.37-1.378,1.37c-0.758,0-1.367-0.61-1.367-1.37
			c0-0.758,0.609-1.375,1.367-1.375C77.084,44.268,77.694,44.885,77.694,45.643L77.694,45.643z M77.694,45.643"/>
		<path fill="#FFFFFF" d="M81.826,49.764c0,0.761-0.622,1.376-1.38,1.376c-0.761,0-1.377-0.615-1.377-1.376
			c0-0.758,0.616-1.374,1.377-1.374C81.204,48.39,81.826,49.006,81.826,49.764L81.826,49.764z M81.826,49.764"/>
		<path fill="#FFFFFF" d="M90.064,49.764c0,0.761-0.609,1.376-1.364,1.376c-0.768,0-1.38-0.615-1.38-1.376
			c0-0.758,0.612-1.374,1.38-1.374C89.455,48.39,90.064,49.006,90.064,49.764L90.064,49.764z M90.064,49.764"/>
		<path fill="#FFFFFF" d="M85.943,45.643c0,0.759-0.615,1.37-1.375,1.37s-1.378-0.61-1.378-1.37c0-0.758,0.618-1.375,1.378-1.375
			S85.943,44.885,85.943,45.643L85.943,45.643z M85.943,45.643"/>
		<path fill="#FFFFFF" d="M77.694,53.887c0,0.769-0.61,1.377-1.378,1.377c-0.758,0-1.367-0.608-1.367-1.377
			c0-0.758,0.609-1.37,1.367-1.37C77.084,52.517,77.694,53.129,77.694,53.887L77.694,53.887z M77.694,53.887"/>
		<path fill="#FFFFFF" d="M81.826,58.018c0,0.758-0.622,1.372-1.38,1.372c-0.761,0-1.377-0.614-1.377-1.372s0.616-1.377,1.377-1.377
			C81.204,56.641,81.826,57.26,81.826,58.018L81.826,58.018z M81.826,58.018"/>
		<path fill="#FFFFFF" d="M85.943,53.887c0,0.769-0.615,1.377-1.375,1.377s-1.378-0.608-1.378-1.377c0-0.758,0.618-1.37,1.378-1.37
			S85.943,53.129,85.943,53.887L85.943,53.887z M85.943,53.887"/>
		<path fill="#FFFFFF" d="M94.194,45.643c0,0.759-0.619,1.37-1.377,1.37c-0.754,0-1.373-0.61-1.373-1.37
			c0-0.758,0.619-1.375,1.373-1.375C93.575,44.268,94.194,44.885,94.194,45.643L94.194,45.643z M94.194,45.643"/>
		<path fill="#FFFFFF" d="M94.194,53.887c0,0.769-0.619,1.377-1.377,1.377c-0.754,0-1.373-0.608-1.373-1.377
			c0-0.758,0.619-1.37,1.373-1.37C93.575,52.517,94.194,53.129,94.194,53.887L94.194,53.887z M94.194,53.887"/>
		<path fill="#FFFFFF" d="M65.321,66.265c0,0.762-0.615,1.37-1.376,1.37c-0.758,0-1.377-0.608-1.377-1.37
			c0-0.756,0.619-1.373,1.377-1.373C64.706,64.892,65.321,65.509,65.321,66.265L65.321,66.265z M65.321,66.265"/>
		<path fill="#FFFFFF" d="M73.572,66.265c0,0.762-0.618,1.37-1.377,1.37c-0.754,0-1.375-0.608-1.375-1.37
			c0-0.756,0.621-1.373,1.375-1.373C72.954,64.892,73.572,65.509,73.572,66.265L73.572,66.265z M73.572,66.265"/>
		<path fill="#FFFFFF" d="M69.442,62.138c0,0.758-0.609,1.377-1.367,1.377c-0.766,0-1.377-0.619-1.377-1.377
			s0.611-1.375,1.377-1.375C68.833,60.763,69.442,61.38,69.442,62.138L69.442,62.138z M69.442,62.138"/>
		<path fill="#FFFFFF" d="M65.321,74.513c0,0.764-0.615,1.375-1.376,1.375c-0.758,0-1.377-0.611-1.377-1.375
			c0-0.759,0.619-1.374,1.377-1.374C64.706,73.139,65.321,73.754,65.321,74.513L65.321,74.513z M65.321,74.513"/>
		<path fill="#FFFFFF" d="M73.572,74.513c0,0.764-0.618,1.375-1.377,1.375c-0.754,0-1.375-0.611-1.375-1.375
			c0-0.759,0.621-1.374,1.375-1.374C72.954,73.139,73.572,73.754,73.572,74.513L73.572,74.513z M73.572,74.513"/>
		<path fill="#FFFFFF" d="M90.064,74.513c0,0.764-0.609,1.375-1.364,1.375c-0.768,0-1.38-0.611-1.38-1.375
			c0-0.759,0.612-1.374,1.38-1.374C89.455,73.139,90.064,73.754,90.064,74.513L90.064,74.513z M90.064,74.513"/>
		<path fill="#FFFFFF" d="M69.442,70.389c0,0.758-0.609,1.377-1.367,1.377c-0.766,0-1.377-0.619-1.377-1.377
			c0-0.762,0.611-1.375,1.377-1.375C68.833,69.014,69.442,69.627,69.442,70.389L69.442,70.389z M69.442,70.389"/>
		<path fill="#FFFFFF" d="M77.694,62.138c0,0.758-0.61,1.377-1.378,1.377c-0.758,0-1.367-0.619-1.367-1.377s0.609-1.375,1.367-1.375
			C77.084,60.763,77.694,61.38,77.694,62.138L77.694,62.138z M77.694,62.138"/>
		<path fill="#FFFFFF" d="M81.826,66.265c0,0.762-0.622,1.37-1.38,1.37c-0.761,0-1.377-0.608-1.377-1.37
			c0-0.756,0.616-1.373,1.377-1.373C81.204,64.892,81.826,65.509,81.826,66.265L81.826,66.265z M81.826,66.265"/>
		<path fill="#FFFFFF" d="M90.064,66.265c0,0.762-0.609,1.37-1.364,1.37c-0.768,0-1.38-0.608-1.38-1.37
			c0-0.756,0.612-1.373,1.38-1.373C89.455,64.892,90.064,65.509,90.064,66.265L90.064,66.265z M90.064,66.265"/>
		<path fill="#FFFFFF" d="M85.943,62.138c0,0.758-0.615,1.377-1.375,1.377s-1.378-0.619-1.378-1.377s0.618-1.375,1.378-1.375
			S85.943,61.38,85.943,62.138L85.943,62.138z M85.943,62.138"/>
		<path fill="#FFFFFF" d="M77.694,70.389c0,0.758-0.61,1.377-1.378,1.377c-0.758,0-1.367-0.619-1.367-1.377
			c0-0.762,0.609-1.375,1.367-1.375C77.084,69.014,77.694,69.627,77.694,70.389L77.694,70.389z M77.694,70.389"/>
		<path fill="#FFFFFF" d="M81.826,74.513c0,0.764-0.622,1.375-1.38,1.375c-0.761,0-1.377-0.611-1.377-1.375
			c0-0.759,0.616-1.374,1.377-1.374C81.204,73.139,81.826,73.754,81.826,74.513L81.826,74.513z M81.826,74.513"/>
		<path fill="#FFFFFF" d="M85.943,70.389c0,0.758-0.615,1.377-1.375,1.377s-1.378-0.619-1.378-1.377
			c0-0.762,0.618-1.375,1.378-1.375S85.943,69.627,85.943,70.389L85.943,70.389z M85.943,70.389"/>
		<path fill="#FFFFFF" d="M94.194,62.138c0,0.758-0.619,1.377-1.377,1.377c-0.754,0-1.373-0.619-1.373-1.377
			s0.619-1.375,1.373-1.375C93.575,60.763,94.194,61.38,94.194,62.138L94.194,62.138z M94.194,62.138"/>
		<path fill="#FFFFFF" d="M94.194,70.389c0,0.758-0.619,1.377-1.377,1.377c-0.754,0-1.373-0.619-1.373-1.377
			c0-0.762,0.619-1.375,1.373-1.375C93.575,69.014,94.194,69.627,94.194,70.389L94.194,70.389z M94.194,70.389"/>
		<path fill="#FFFFFF" d="M65.321,82.762c0,0.756-0.615,1.375-1.376,1.375c-0.758,0-1.377-0.619-1.377-1.375
			c0-0.76,0.619-1.375,1.377-1.375C64.706,81.387,65.321,82.002,65.321,82.762L65.321,82.762z M65.321,82.762"/>
		<path fill="#FFFFFF" d="M73.572,82.762c0,0.756-0.618,1.375-1.377,1.375c-0.754,0-1.375-0.619-1.375-1.375
			c0-0.76,0.621-1.375,1.375-1.375C72.954,81.387,73.572,82.002,73.572,82.762L73.572,82.762z M73.572,82.762"/>
		<path fill="#FFFFFF" d="M69.442,78.64c0,0.759-0.609,1.371-1.367,1.371c-0.766,0-1.377-0.612-1.377-1.371
			c0-0.758,0.611-1.377,1.377-1.377C68.833,77.263,69.442,77.882,69.442,78.64L69.442,78.64z M69.442,78.64"/>
		<path fill="#FFFFFF" d="M77.694,78.64c0,0.759-0.61,1.371-1.378,1.371c-0.758,0-1.367-0.612-1.367-1.371
			c0-0.758,0.609-1.377,1.367-1.377C77.084,77.263,77.694,77.882,77.694,78.64L77.694,78.64z M77.694,78.64"/>
	</g>
	<g>
		<g>
			<path fill="#FFFFFF" d="M60.488,12.468c0-3.579,0-7.158,0-10.736c0-0.841-1.305-0.841-1.305,0c0,3.579,0,7.158,0,10.736
				C59.183,13.309,60.488,13.309,60.488,12.468L60.488,12.468z"/>
		</g>
	</g>
	<g>
		<g>
			<path fill="#FFFFFF" d="M16.994,82.685c2.778-2.257,5.556-4.514,8.333-6.771c0.653-0.53-0.276-1.448-0.923-0.922
				c-2.778,2.257-5.556,4.514-8.333,6.771C15.418,82.293,16.347,83.211,16.994,82.685L16.994,82.685z"/>
		</g>
	</g>
	<g>
		<g>
			<path fill="#FFFFFF" d="M106.292,81.763c-2.777-2.258-5.556-4.515-8.334-6.771c-0.646-0.526-1.575,0.392-0.922,0.922
				c2.777,2.258,5.556,4.515,8.334,6.771C106.017,83.211,106.945,82.293,106.292,81.763L106.292,81.763z"/>
		</g>
	</g>
</g>
</svg>
