<?xml version="1.0" encoding="utf-8"?>
<!-- Generator: Adobe Illustrator 16.0.3, SVG Export Plug-In . SVG Version: 6.00 Build 0)  -->
<!DOCTYPE svg PUBLIC "-//W3C//DTD SVG 1.1//EN" "http://www.w3.org/Graphics/SVG/1.1/DTD/svg11.dtd">
<svg version="1.1" id="Layer_1" xmlns="http://www.w3.org/2000/svg" xmlns:xlink="http://www.w3.org/1999/xlink" x="0px" y="0px"
	 width="122px" height="95px" viewBox="0 0 122 95" enable-background="new 0 0 122 95" xml:space="preserve">
<g>
	<g>
		<path fill="#FFFFFF" stroke="#91077C" stroke-width="0.6596" stroke-miterlimit="10" d="M43.166,45.702
			c0.384,0.403,0.888,0.605,1.391,0.605c0.503,0,1.007-0.202,1.392-0.605c0.767-0.813,0.767-2.127,0-2.939l-3.662-3.869l5.244-5.537
			c0.769-0.81,0.769-2.125,0-2.937c-0.767-0.81-2.013-0.81-2.782,0l-5.245,5.539l-4.605-4.864l5.244-5.54
			c0.768-0.812,0.768-2.125,0-2.938c-0.769-0.81-2.014-0.81-2.782,0l-5.246,5.538L21.63,17.084L31.914,6.297l24.284,25.641
			c0.768,0.813,2.013,0.813,2.781,0c0.769-0.81,0.769-2.127,0-2.938L33.31,1.895c-0.765-0.807-2.008-0.81-2.776-0.003L17.458,15.604
			c-0.37,0.39-0.58,0.92-0.581,1.47c-0.001,0.553,0.206,1.083,0.576,1.474L43.166,45.702z M43.166,45.702"/>
		<path fill="#FFFFFF" stroke="#91077C" stroke-width="0.6596" stroke-miterlimit="10" d="M104.144,76.695L78.451,49.566
			c-0.767-0.813-2.013-0.813-2.781,0c-0.769,0.809-0.769,2.127,0,2.938l24.299,25.658l-10.25,10.822L79.231,77.908l5.244-5.537
			c0.769-0.813,0.769-2.129,0-2.939c-0.769-0.809-2.014-0.809-2.782,0l-5.244,5.541l-4.606-4.865l5.244-5.541
			c0.768-0.811,0.768-2.125,0-2.936c-0.769-0.813-2.014-0.813-2.781,0l-5.244,5.537l-3.64-3.84c-0.769-0.814-2.016-0.814-2.783,0
			c-0.767,0.809-0.767,2.123,0,2.936L88.33,93.395C88.714,93.799,89.217,94,89.719,94c0.506,0,1.009-0.201,1.393-0.605
			l13.032-13.764C104.911,78.82,104.911,77.502,104.144,76.695L104.144,76.695z M104.144,76.695"/>
	</g>
	<path fill="#FFFFFF" stroke="#91077C" stroke-width="0.6596" stroke-miterlimit="10" d="M29.334,14.141
		c-0.745,0.784-1.152,1.829-1.152,2.938c0,1.111,0.407,2.152,1.152,2.939c0.742,0.784,1.73,1.217,2.781,1.217
		c1.052,0,2.04-0.433,2.784-1.217c1.533-1.622,1.533-4.257,0-5.877c-0.744-0.784-1.732-1.215-2.784-1.215
		C31.064,12.925,30.076,13.357,29.334,14.141L29.334,14.141z M29.334,14.141"/>
	<g>
		<path fill="#FFFFFF" stroke="#91077C" stroke-width="0.6596" stroke-miterlimit="10" d="M92.502,80.846
			c0.744-0.785,1.152-1.828,1.152-2.938s-0.408-2.152-1.152-2.936c-0.742-0.785-1.73-1.221-2.783-1.221
			c-1.049,0-2.037,0.436-2.779,1.221c-0.744,0.783-1.152,1.826-1.152,2.936s0.408,2.152,1.15,2.938
			c0.744,0.785,1.732,1.217,2.781,1.217C90.771,82.063,91.76,81.631,92.502,80.846L92.502,80.846z M92.502,80.846"/>
		<path fill="#FFFFFF" stroke="#91077C" stroke-width="0.6596" stroke-miterlimit="10" d="M96.04,25.119v-0.003h0.003l5.635-5.95
			c3.835-4.05,3.835-10.639,0-14.689c-1.855-1.959-4.325-3.039-6.955-3.039c-2.629,0-5.101,1.08-6.956,3.039l-5.634,5.949
			c0,0.001-0.002,0.001-0.002,0.001c0,0.003,0,0.003-0.001,0.003l-6.952,7.341v0.001c0,0,0,0-0.002,0L30.088,65.385
			c-0.004,0.004-0.007,0.01-0.01,0.012c-0.061,0.066-0.115,0.135-0.167,0.207c-0.012,0.016-0.021,0.031-0.033,0.047
			c-0.044,0.068-0.086,0.137-0.124,0.209c-0.003,0.008-0.009,0.016-0.013,0.023l-7.328,14.641c-0.003,0.008-0.007,0.016-0.011,0.021
			L17.27,90.803c-0.404,0.807-0.262,1.795,0.348,2.439c0.378,0.398,0.881,0.609,1.391,0.609c0.313,0,0.628-0.08,0.918-0.24
			l9.714-5.424c0.007-0.004,0.012-0.006,0.019-0.01l13.867-7.736c0.004-0.002,0.006-0.004,0.011-0.006
			c0.076-0.045,0.147-0.094,0.218-0.146c0.012-0.01,0.024-0.018,0.037-0.027c0.068-0.055,0.132-0.115,0.195-0.178
			c0.003-0.002,0.008-0.006,0.012-0.012L96.04,25.119z M29.1,83.793l-2.533-2.674l4.141-8.279l0.852,4.096
			c0.002,0.012,0.006,0.021,0.008,0.033c0.018,0.076,0.039,0.152,0.063,0.229c0.006,0.012,0.01,0.029,0.015,0.043
			c0.03,0.082,0.066,0.164,0.107,0.242c0.006,0.012,0.014,0.025,0.02,0.037c0.034,0.066,0.074,0.127,0.116,0.189
			c0.012,0.018,0.024,0.035,0.037,0.051c0.05,0.068,0.104,0.139,0.164,0.201c0.06,0.063,0.123,0.121,0.19,0.174
			c0.015,0.014,0.033,0.025,0.048,0.037c0.059,0.045,0.119,0.086,0.181,0.125c0.011,0.004,0.021,0.014,0.033,0.02
			c0.076,0.043,0.153,0.08,0.232,0.111c0.012,0.008,0.026,0.012,0.039,0.018c0.072,0.025,0.145,0.049,0.218,0.066
			c0.01,0,0.019,0.006,0.028,0.008l3.879,0.9L29.1,83.793z M37.414,75.275l7.23-7.637c0.769-0.811,0.769-2.125,0-2.938
			c-0.767-0.811-2.013-0.811-2.782,0l-7.231,7.635l-1.001-4.816l42.936-45.341l2.783,2.937L46.606,59.691
			c-0.767,0.811-0.767,2.127,0,2.938c0.384,0.406,0.889,0.609,1.392,0.609c0.503,0,1.007-0.203,1.391-0.609l32.742-34.573
			l2.783,2.936L41.977,76.33L37.414,75.275z M83.523,14.835l8.346,8.813l-4.174,4.407l-8.346-8.814L83.523,14.835z M90.55,7.414
			c1.112-1.174,2.595-1.821,4.173-1.821c1.579,0,3.06,0.647,4.172,1.821c2.301,2.43,2.301,6.384,0,8.814l-4.244,4.481l-8.346-8.813
			L90.55,7.414z M24.643,84.961l0.817,0.863l-1.732,0.967L24.643,84.961z M24.643,84.961"/>
	</g>
</g>
</svg>
