<?xml version="1.0" encoding="utf-8"?>
<!-- Generator: Adobe Illustrator 16.0.3, SVG Export Plug-In . SVG Version: 6.00 Build 0)  -->
<!DOCTYPE svg PUBLIC "-//W3C//DTD SVG 1.1//EN" "http://www.w3.org/Graphics/SVG/1.1/DTD/svg11.dtd">
<svg version="1.1" id="Layer_1" xmlns="http://www.w3.org/2000/svg" xmlns:xlink="http://www.w3.org/1999/xlink" x="0px" y="0px"
	 width="122px" height="95px" viewBox="0 0 122 95" enable-background="new 0 0 122 95" xml:space="preserve">
<path fill="none" stroke="#FFFFFF" stroke-width="6" stroke-miterlimit="10" d="M67.469,6.346c2.755,0.85,4.627,2.692,6.148,5.094
	c0.535,0.846,1.632,1.397,2.574,1.896c0.79,0.419,1.739,0.527,2.592,0.842c3.122,1.15,5.146,3.817,4.891,7.11
	c-0.224,2.869,0.445,5.143,2.344,7.348c2.412,2.803,2.393,6.208-0.006,9.038c-1.827,2.159-2.59,4.354-2.344,7.195
	c0.302,3.462-1.809,6.458-5.193,7.311c-2.789,0.702-4.731,2.033-6.264,4.501c-1.859,2.997-5.578,4.088-9.01,2.728
	c-2.426-0.958-4.565-0.945-6.99,0c-3.619,1.412-7.234,0.19-9.286-3.099c-1.325-2.122-2.979-3.338-5.404-3.959
	c-4.108-1.061-6.086-3.854-5.766-8.096c0.181-2.399-0.459-4.256-1.995-6.091c-2.858-3.422-2.875-6.613-0.005-10.022
	c1.589-1.89,2.167-3.813,1.99-6.246c-0.299-4.1,1.718-6.913,5.76-7.952c2.421-0.624,4.2-1.751,5.391-3.97
	c1.064-1.985,3.027-2.881,5.044-3.628c1.015,0,2.031,0,3.046,0c0.988,0.366,1.957,0.812,2.972,1.071
	c0.852,0.217,1.806,0.443,2.633,0.27c1.314-0.273,2.561-0.878,3.835-1.342C65.438,6.346,66.453,6.346,67.469,6.346z"/>
<path fill="none" stroke="#FFFFFF" stroke-width="6" stroke-miterlimit="10" d="M65.456,68.501
	c6.804,1.404,11.593-1.238,15.038-7.292c2.679,7.287,5.209,13.305,7.834,20.45c-2.755-0.676-5.283-0.288-7.711-1.076
	c-1.6-0.518-2.431-0.109-3.291,1.24c-1.435,2.251-3.076,4.368-4.817,6.806C70.114,81.798,67.819,75.244,65.456,68.501z"/>
<path fill="none" stroke="#FFFFFF" stroke-width="6" stroke-miterlimit="10" d="M40.916,63.182c4.239,5.6,9.492,6.956,16.047,4.513
	c-2.191,6.266-4.539,12.98-7.312,20.918c-1.543-2.144-2.916-4.044-4.279-5.947c-1.834-2.563-1.831-2.555-4.918-1.775
	c-2.102,0.53-4.208,1.042-6.628,1.643C36.216,76.005,38.521,69.719,40.916,63.182z"/>
<path fill="none" stroke="#FFFFFF" stroke-width="6" stroke-miterlimit="10" d="M49.199,33.027
	c0.029-5.986,5.01-10.881,11.04-10.847c6.012,0.033,10.898,4.973,10.882,11.003c-0.016,6.013-4.939,10.92-10.964,10.919
	C54.071,44.103,49.17,39.146,49.199,33.027z"/>
</svg>
