<?xml version="1.0" encoding="utf-8"?>
<!-- Generator: Adobe Illustrator 16.0.3, SVG Export Plug-In . SVG Version: 6.00 Build 0)  -->
<!DOCTYPE svg PUBLIC "-//W3C//DTD SVG 1.1//EN" "http://www.w3.org/Graphics/SVG/1.1/DTD/svg11.dtd">
<svg version="1.1" id="Layer_1" xmlns="http://www.w3.org/2000/svg" xmlns:xlink="http://www.w3.org/1999/xlink" x="0px" y="0px"
	 width="122px" height="95px" viewBox="0 0 122 95" enable-background="new 0 0 122 95" xml:space="preserve">
<g>
	<path fill="#FFFFFF" d="M10.197,58.822c0.187,0.059,0.372,0.08,0.558,0.08c0.872,0,1.675-0.568,1.93-1.449
		c0.352-1.238,0.764-2.457,1.213-3.652c0.381-1.039-0.137-2.193-1.174-2.587c-1.038-0.381-2.193,0.137-2.585,1.179
		c-0.489,1.291-0.93,2.623-1.312,3.953C8.522,57.404,9.13,58.519,10.197,58.822L10.197,58.822z M10.197,58.822"/>
	<path fill="#FFFFFF" d="M10.786,68.84c0.059-1.282,0.176-2.576,0.332-3.85c0.146-1.095-0.637-2.095-1.733-2.24
		c-1.077-0.135-2.105,0.646-2.243,1.743c-0.176,1.361-0.293,2.751-0.362,4.14c-0.021,0.277,0.03,0.529,0.108,0.764H0.69v16.051
		h16.038V69.396h-6.09C10.707,69.224,10.775,69.036,10.786,68.84L10.786,68.84z M12.724,81.433H4.705v-8.021h8.019V81.433z
		 M12.724,81.433"/>
	<path fill="#FFFFFF" d="M23.915,31.818c-1.008,0.952-1.999,1.939-2.928,2.957c-0.755,0.813-0.696,2.086,0.118,2.842
		c0.38,0.35,0.871,0.526,1.35,0.526c0.548,0,1.088-0.222,1.479-0.653c0.871-0.941,1.784-1.862,2.721-2.733
		c0.804-0.753,0.853-2.027,0.099-2.84C26,31.114,24.727,31.063,23.915,31.818L23.915,31.818z M23.915,31.818"/>
	<path fill="#FFFFFF" d="M15.838,41.307c-0.764,1.155-1.499,2.341-2.185,3.543c-0.538,0.972-0.204,2.192,0.763,2.734
		c0.315,0.175,0.647,0.265,0.98,0.265c0.704,0,1.38-0.376,1.753-1.021c0.627-1.116,1.313-2.22,2.016-3.278
		c0.627-0.92,0.374-2.171-0.538-2.793C17.697,40.142,16.454,40.387,15.838,41.307L15.838,41.307z M15.838,41.307"/>
	<path fill="#FFFFFF" d="M33.952,24.417c-1.206,0.685-2.391,1.429-3.537,2.213c-0.92,0.627-1.155,1.872-0.528,2.78
		c0.382,0.578,1.019,0.88,1.655,0.88c0.391,0,0.783-0.106,1.136-0.341c1.057-0.726,2.154-1.412,3.26-2.045
		c0.959-0.549,1.292-1.784,0.743-2.744C36.134,24.203,34.91,23.87,33.952,24.417L33.952,24.417z M33.952,24.417"/>
	<path fill="#FFFFFF" d="M107.545,50.197c0.3,0,0.604-0.068,0.889-0.217c0.989-0.488,1.401-1.694,0.901-2.681
		c-0.617-1.245-1.294-2.477-1.998-3.652c-0.566-0.951-1.802-1.265-2.752-0.696c-0.949,0.569-1.263,1.8-0.692,2.751
		c0.653,1.096,1.28,2.234,1.849,3.39C106.104,49.786,106.81,50.197,107.545,50.197L107.545,50.197z M107.545,50.197"/>
	<path fill="#FFFFFF" d="M82.79,21.909c-0.519-0.235-1.067-0.418-1.597-0.635h24.057c0.894,3.446,4.007,6.009,7.735,6.009
		c4.429,0,8.021-3.593,8.021-8.019c0-4.425-3.592-8.019-8.021-8.019c-3.729,0-6.842,2.564-7.735,6.011H68.868v-6.011h-16.04v6.011
		H16.444c-0.891-3.447-4.004-6.011-7.734-6.011c-4.426,0-8.02,3.594-8.02,8.019c0,4.425,3.594,8.019,8.02,8.019
		c3.73,0,6.843-2.563,7.734-6.009h24.352c-0.569,0.539-0.783,1.39-0.479,2.161c0.303,0.804,1.066,1.295,1.87,1.295
		c0.234,0,0.479-0.041,0.713-0.139c1.206-0.46,2.43-0.867,3.653-1.231c0.92-0.274,1.459-1.167,1.392-2.086h4.641
		c0.088,0.067,0.146,0.165,0.244,0.224v5.786h16.04V21.94c0.431,0.067,0.86,0.125,1.28,0.204c0.129,0.029,0.246,0.038,0.372,0.038
		c0.677,0,1.294-0.348,1.663-0.908h4.368c-0.058,0.108-0.144,0.194-0.184,0.313c-0.372,1.047,0.175,2.19,1.212,2.557
		c1.216,0.428,2.42,0.908,3.584,1.427c0.265,0.118,0.539,0.175,0.813,0.175c0.763,0,1.496-0.449,1.83-1.19
		C84.26,23.533,83.799,22.36,82.79,21.909L82.79,21.909z M112.985,15.263c2.214,0,4.007,1.791,4.007,4.002
		c0,2.213-1.793,4.017-4.007,4.017c-2.213,0-4.013-1.803-4.013-4.017C108.973,17.053,110.772,15.263,112.985,15.263L112.985,15.263z
		 M8.71,23.281c-2.214,0-4.005-1.803-4.005-4.017c0-2.211,1.791-4.002,4.005-4.002c2.213,0,4.014,1.791,4.014,4.002
		C12.724,21.478,10.923,23.281,8.71,23.281L8.71,23.281z M60.181,23.281h-3.348v-8.019h8.029v8.019H60.181z M60.181,23.281"/>
	<path fill="#FFFFFF" d="M114.826,67.244c-0.076-1.098-1.025-1.919-2.143-1.843c-1.107,0.08-1.939,1.046-1.851,2.156
		c0.047,0.607,0.047,1.224,0.068,1.839h-5.935v16.051h16.039V69.396h-6.091C114.886,68.685,114.886,67.958,114.826,67.244
		L114.826,67.244z M116.992,81.433h-8.02v-8.021h8.02V81.433z M116.992,81.433"/>
	<path fill="#FFFFFF" d="M99.75,33.757c-0.774-0.802-2.047-0.822-2.839-0.047c-0.796,0.772-0.813,2.035-0.05,2.839
		c0.889,0.912,1.752,1.878,2.575,2.868c0.399,0.48,0.97,0.726,1.545,0.726c0.451,0,0.911-0.157,1.284-0.461
		c0.853-0.715,0.97-1.978,0.265-2.829C101.638,35.784,100.699,34.745,99.75,33.757L99.75,33.757z M99.75,33.757"/>
	<path fill="#FFFFFF" d="M109.942,53.701c-1.059,0.345-1.635,1.469-1.304,2.527c0.393,1.215,0.735,2.466,1.02,3.711
		c0.226,0.931,1.047,1.549,1.957,1.549c0.146,0,0.306-0.012,0.461-0.053c1.078-0.252,1.742-1.33,1.489-2.409
		c-0.313-1.35-0.686-2.7-1.098-4.011C112.125,53.954,110.998,53.369,109.942,53.701L109.942,53.701z M109.942,53.701"/>
	<path fill="#FFFFFF" d="M90.103,25.855c-0.928-0.598-2.163-0.333-2.771,0.597c-0.595,0.929-0.323,2.174,0.607,2.771
		c1.078,0.694,2.146,1.441,3.164,2.212c0.361,0.274,0.783,0.413,1.204,0.413c0.606,0,1.202-0.284,1.607-0.805
		c0.665-0.879,0.486-2.131-0.396-2.81C92.426,27.401,91.269,26.61,90.103,25.855L90.103,25.855z M90.103,25.855"/>
</g>
</svg>
