<?xml version="1.0" encoding="utf-8"?>
<!-- Generator: Adobe Illustrator 16.0.3, SVG Export Plug-In . SVG Version: 6.00 Build 0)  -->
<!DOCTYPE svg PUBLIC "-//W3C//DTD SVG 1.1//EN" "http://www.w3.org/Graphics/SVG/1.1/DTD/svg11.dtd">
<svg version="1.1" id="Layer_1" xmlns="http://www.w3.org/2000/svg" xmlns:xlink="http://www.w3.org/1999/xlink" x="0px" y="0px"
	 width="122px" height="95px" viewBox="0 0 122 95" enable-background="new 0 0 122 95" xml:space="preserve">
<g id="jRFVJJ.tif">
	<g>
		<path fill="#FFFFFF" stroke="#94CB1F" stroke-width="1.0094" d="M110.536,74.756c-0.274,1.487-0.432,3.008-0.846,4.455
			c-1.883,6.621-6.493,10.46-12.933,12.233c-2.114,0.582-4.361,1.127-6.514,1.023c-3.802-0.189-7.599-0.963-10.856-3.097
			c-2.227-1.455-4.31-3.174-6.29-4.96c-7.637-6.905-15.209-13.878-22.808-20.828c-0.155-0.14-0.324-0.263-0.611-0.49
			c-0.138,1.188-0.214,2.249-0.39,3.296c-1.061,6.466-4.886,10.838-10.566,13.747c-5.72,2.931-11.913,3.984-18.247,4.389
			c-1.297,0.079-2.598,0.013-4.004,0.013c4.307-3.07,8.773-5.965,11.833-10.728c-5.502-0.081-10.335-1.784-14.959-4.363
			c1.442-0.095,2.88-0.174,4.32-0.292c4.268-0.351,8.388-1.24,12.106-3.485c4.608-2.78,6.945-6.949,7.3-12.259
			c0.024-0.358-0.383-0.897-0.735-1.12c-4.094-2.544-8.158-5.141-12.353-7.509c-3.116-1.761-5.367-4.277-7.228-7.209
			c-3.068-4.844-4.512-10.143-4.33-15.899c0.272-8.567,5.263-15.516,13.328-18.453c2.711-0.986,5.503-1.518,8.393-1.613
			c1.468-0.047,2.671,0.385,3.759,1.365c6.754,6.094,13.514,12.182,20.307,18.234c0.883,0.786,1.896,1.471,2.948,2.012
			c13.014,6.694,26.047,13.351,39.075,20.021c2.5,1.281,3.323,3.396,2.146,5.517c-0.672,1.216-1.834,1.668-3.098,1.977
			c-4.638,1.124-9.079,2.767-13.174,5.251c-3.287,1.995-6.246,4.367-8.07,7.867c-3.369,6.441-0.937,15.736,5.099,19.073
			c4.662,2.582,9.511,2.619,14.291,0.297c4.151-2.014,5.6-5.641,5.548-10.024c-0.064-5.294-2.395-7.51-7.704-7.398
			c-2.097,0.048-4.111,0.422-5.898,1.586c-1.536,1.002-1.876,2.063-1.369,3.95c0.384,1.416,1.238,2.072,2.991,2.178
			c1.386,0.082,2.638,0.37,3.557,1.537c1.633,2.086,0.486,5.279-2.113,5.819c-5.291,1.103-10.826-2.802-11.862-8.364
			c-1.08-5.791,1.275-10.154,7.077-12.652c4.148-1.789,8.503-2.068,12.88-0.889c5.869,1.579,8.887,5.629,9.754,11.489
			c0.063,0.421,0.16,0.838,0.241,1.258C110.536,72.725,110.536,73.738,110.536,74.756z M88.897,45.907
			c0.011,0.007-0.087-0.092-0.205-0.152C79.54,41.06,70.389,36.365,61.22,31.701c-0.305-0.158-0.881-0.116-1.165,0.076
			c-1.261,0.848-2.546,1.688-3.66,2.711c-5.056,4.629-7.009,10.577-7.085,17.259c-0.006,0.48,0.389,1.076,0.767,1.429
			c4.788,4.432,9.606,8.831,14.417,13.235c1.463,1.341,2.929,2.677,4.47,4.088c0.205-1.745,0.276-3.373,0.603-4.946
			c1.269-6.128,4.95-10.665,9.951-14.121C82.479,49.384,85.728,47.753,88.897,45.907z M48.635,22.695
			c-0.368-0.325-0.584-0.515-0.8-0.707c-4.015-3.609-8.164-7.081-11.982-10.887c-1.894-1.891-3.669-2.087-5.993-1.37
			c-5.239,1.606-8.838,4.709-9.777,10.33c-0.554,3.327-0.138,6.6,1.109,9.706c1.491,3.723,3.543,7.008,7.294,8.978
			c2.4,1.262,4.653,2.801,6.97,4.214c0.333,0.204,0.673,0.389,1.168,0.675C37.34,34.744,40.444,27.324,48.635,22.695z"/>
	</g>
</g>
</svg>
