<?xml version="1.0" encoding="utf-8"?>
<!-- Generator: Adobe Illustrator 16.0.3, SVG Export Plug-In . SVG Version: 6.00 Build 0)  -->
<!DOCTYPE svg PUBLIC "-//W3C//DTD SVG 1.1//EN" "http://www.w3.org/Graphics/SVG/1.1/DTD/svg11.dtd">
<svg version="1.1" id="Layer_1" xmlns="http://www.w3.org/2000/svg" xmlns:xlink="http://www.w3.org/1999/xlink" x="0px" y="0px"
	 width="122px" height="95px" viewBox="0 0 122 95" enable-background="new 0 0 122 95" xml:space="preserve">
<g>
	<path fill="#FFFFFF" d="M78.162,11.492l2.525-4.243c0.572-1.029,1.835-1.38,2.864-0.807c1.027,0.573,1.378,1.835,0.806,2.865
		l-2.524,4.243c-0.34,0.692-1.146,1.029-1.836,1.029c-0.34,0-0.69-0.116-1.029-0.233C77.929,13.783,77.589,12.531,78.162,11.492
		L78.162,11.492z M41.043,13.563c0.339,0.688,1.145,1.028,1.835,1.028c0.339,0,0.689-0.116,1.028-0.235
		c1.03-0.572,1.379-1.833,0.806-2.863l-2.525-4.243c-0.572-1.029-1.834-1.38-2.863-0.807c-1.031,0.573-1.38,1.835-0.807,2.865
		L41.043,13.563z M61.432,9.668c1.147,0,2.06-0.914,2.06-2.059V2.687c0-1.145-0.912-2.059-2.06-2.059
		c-1.145,0-2.057,0.914-2.057,2.059v4.922C59.257,8.745,60.169,9.668,61.432,9.668L61.432,9.668z M24.313,42.544h-4.922
		c-1.146,0-2.058,0.91-2.058,2.057c0,1.145,0.912,2.058,2.058,2.058h4.922c1.146,0,2.059-0.913,2.059-2.058
		C26.372,43.454,25.459,42.544,24.313,42.544L24.313,42.544z M103.484,42.544h-4.922c-1.147,0-2.058,0.91-2.058,2.057
		c0,1.145,0.91,2.058,2.058,2.058h4.922c1.145,0,2.057-0.913,2.057-2.058C105.541,43.454,104.629,42.544,103.484,42.544
		L103.484,42.544z M99.697,22.61c-0.571-1.027-1.834-1.378-2.863-0.806l-4.244,2.523c-1.029,0.573-1.379,1.835-0.808,2.865
		c0.342,0.692,1.147,1.029,1.835,1.029c0.34,0,0.692-0.118,1.03-0.235l4.243-2.524C99.932,24.9,100.271,23.64,99.697,22.61
		L99.697,22.61z M88.474,44.379c0,4.699-1.263,9.281-3.553,13.408c-0.117,0.341-0.234,0.573-0.457,0.809l-0.233,0.337
		c-0.913,1.38-1.836,2.749-2.979,3.894c-4.012,5.613-6.07,10.429-5.965,13.515v0.118c0,0.233,0.117,0.572,0.117,0.911v9.857
		c0,4.348-3.553,7.785-7.784,7.785h-12.71c-4.349,0-7.787-3.553-7.787-7.785V76.341c0.117-2.979-1.951-7.678-5.728-13.175
		c-1.263-1.378-2.525-2.864-3.438-4.582c-0.117-0.235-0.233-0.338-0.339-0.573c-2.408-4.127-3.67-8.827-3.67-13.516
		c0-15.01,12.262-27.262,27.264-27.262C76.211,17.115,88.474,29.367,88.474,44.379L88.474,44.379z M71.172,78.519H51.355v3.895
		h19.817V78.519z M61.555,90.663h6.072c1.826,0,3.321-1.369,3.545-3.204l0,0v-0.806H51.355v0.806
		c0.233,1.835,1.718,3.204,3.554,3.204H61.555 M58.736,74.295h12.553c0.688-4.7,3.892-10.079,6.757-14.089
		c0-0.115,0.116-0.115,0.233-0.233c1.029-1.029,1.951-2.292,2.63-3.553c0-0.117,0.117-0.117,0.117-0.232
		c0-0.118,0.115-0.118,0.115-0.235c2.06-3.436,3.089-7.447,3.089-11.573l0,0c0-12.72-10.312-23.031-23.032-23.031
		c-12.721,0-23.031,10.312-23.031,23.031c0,4.126,1.146,8.138,3.205,11.69v0.118c0.912,1.481,1.952,2.862,3.097,4.125l0.233,0.233
		c3.776,5.39,5.962,9.972,6.535,13.749H58.736 M30.276,24.328l-4.243-2.523c-1.03-0.572-2.292-0.233-2.865,0.806
		c-0.572,1.03-0.234,2.291,0.806,2.865l4.244,2.523c0.339,0.235,0.689,0.235,1.028,0.235c0.69,0,1.486-0.341,1.835-1.031
		C31.644,26.163,31.305,24.9,30.276,24.328L30.276,24.328z M30.276,24.328"/>
</g>
</svg>
