<?xml version="1.0" encoding="utf-8"?>
<!-- Generator: Adobe Illustrator 16.0.3, SVG Export Plug-In . SVG Version: 6.00 Build 0)  -->
<!DOCTYPE svg PUBLIC "-//W3C//DTD SVG 1.1//EN" "http://www.w3.org/Graphics/SVG/1.1/DTD/svg11.dtd">
<svg version="1.1" id="Layer_1" xmlns="http://www.w3.org/2000/svg" xmlns:xlink="http://www.w3.org/1999/xlink" x="0px" y="0px"
	 width="122px" height="95px" viewBox="0 0 122 95" enable-background="new 0 0 122 95" xml:space="preserve">
<g id="V9XDXp_1_">
	<g>
		<path fill="#FFFFFF" d="M93.103,9.955c-0.196,1.479-0.353,2.904-0.574,4.319c-1.02,6.521-2.629,12.869-5.603,18.81
			c-1.845,3.688-4.182,7.01-7.438,9.608c-2.705,2.162-5.76,3.54-9.218,3.955c-0.449,0.053-0.67,0.219-0.631,0.714
			c0.042,0.512,0.012,1.03,0.012,1.537c0.96,0.197,1.867,0.34,2.748,0.563c4.366,1.098,7.797,3.624,10.612,7.054
			c2.801,3.411,4.715,7.311,6.192,11.437c1.942,5.432,3.119,11.038,3.747,16.764c0.05,0.466,0.208,0.598,0.668,0.587
			c1.225-0.033,2.456-0.02,3.683-0.011c1.839,0.013,3.06,1.304,3.005,3.155c-0.017,0.586-0.002,1.175,0.022,1.76
			c0.057,1.547-1.149,2.896-2.702,3.004c-0.19,0.013-0.381,0.013-0.57,0.013c-23.428,0-46.854,0-70.281,0
			c-1.685,0-2.926-0.754-3.14-2.192c-0.179-1.191-0.152-2.454,0.021-3.649c0.173-1.218,1.421-2.063,2.708-2.082
			c1.279-0.023,2.56-0.026,3.839,0.005c0.458,0.012,0.622-0.121,0.671-0.581c0.561-5.332,1.638-10.557,3.346-15.641
			c1.568-4.668,3.642-9.083,6.854-12.882c2.702-3.195,5.965-5.556,10.042-6.667c0.962-0.262,1.957-0.415,3.046-0.644
			c0-0.609,0.012-1.275-0.015-1.943c-0.004-0.093-0.191-0.245-0.305-0.255c-5.905-0.68-10.299-3.835-13.783-8.447
			c-2.657-3.518-4.452-7.478-5.844-11.627c-1.459-4.338-2.435-8.793-3.065-13.321c-0.136-0.977-0.253-1.958-0.345-2.934
			c-0.027-0.315-0.143-0.406-0.447-0.404c-1.263,0.014-2.524,0.01-3.79,0.005c-1.851-0.006-3.049-1.218-3.033-3.058
			c0.008-0.673,0.002-1.348,0.002-2.02c-0.002-1.474,1.152-2.724,2.624-2.838c0.17-0.012,0.346-0.012,0.52-0.012
			c23.495,0,46.992-0.002,70.486,0c1.621,0,2.857,0.845,3.064,2.297c0.155,1.082,0.151,2.215,0.008,3.298
			c-0.188,1.409-1.395,2.314-2.828,2.33c-1.245,0.014-2.491,0.003-3.737,0.003C93.479,9.955,93.293,9.955,93.103,9.955z
			 M34.919,85.255c18.01,0,35.943,0,53.87,0c0.019-0.075,0.043-0.125,0.04-0.174c-0.006-0.172-0.013-0.346-0.032-0.518
			c-0.573-4.695-1.499-9.316-2.992-13.812c-1.299-3.908-2.953-7.647-5.459-10.951c-3.179-4.188-7.214-6.803-12.649-6.835
			c-1.36-0.012-2.136-0.856-2.146-2.216c-0.016-1.916-0.017-3.835-0.004-5.751c0.009-1.422,0.831-2.211,2.263-2.273
			c0.846-0.036,1.694-0.098,2.526-0.243c3.811-0.659,6.8-2.704,9.234-5.621c3.434-4.104,5.393-8.942,6.881-14
			c0.952-3.242,1.627-6.542,2.1-9.884c0.14-0.988,0.251-1.973,0.379-2.983c-18.047,0-36.01,0-53.991,0
			c0,0.159-0.014,0.279,0.001,0.397c0.555,4.975,1.506,9.875,3.097,14.633c1.362,4.074,3.104,7.961,5.799,11.346
			c3.174,3.99,7.179,6.369,12.409,6.374c1.183,0.001,2.007,0.893,2.018,2.123c0.016,1.97,0.012,3.944-0.002,5.912
			c-0.009,1.325-0.843,2.186-2.176,2.194c-4.53,0.037-8.222,1.883-11.244,5.184c-2.209,2.412-3.835,5.194-5.143,8.175
			c-2.054,4.686-3.317,9.596-4.16,14.627C35.307,82.37,35.13,83.793,34.919,85.255z"/>
		<path fill="#FFFFFF" d="M63.277,65.563c0.273,0,0.478,0,0.681,0c5.517,0,11.035,0.006,16.553-0.016
			c0.439-0.002,0.627,0.164,0.809,0.531c2.268,4.584,3.553,9.468,4.461,14.469c0.136,0.761,0.25,1.525,0.38,2.324
			c-16.187,0-32.305,0-48.508,0c0.165-0.986,0.314-1.951,0.494-2.91c0.73-3.899,1.742-7.721,3.233-11.404
			c0.345-0.848,0.76-1.667,1.099-2.516c0.155-0.39,0.378-0.489,0.779-0.488c5.518,0.016,11.036,0.01,16.554,0.01
			c0.218,0,0.438,0,0.725,0c0-0.284,0-0.499,0-0.72c0-5.155,0-10.31,0-15.465c0-1.591-0.087-3.183,0.023-4.762
			c0.122-1.786-1.452-3.837-3.49-4.17c-0.763-0.121-1.547-0.125-2.322-0.197c-2.651-0.239-4.9-1.376-6.878-3.102
			c-1.738-1.518-3.088-3.35-4.24-5.339c-0.03-0.054-0.05-0.115-0.091-0.218c12.257,0,24.469,0,36.791,0
			c-0.419,0.66-0.787,1.272-1.189,1.865c-1.619,2.379-3.544,4.425-6.186,5.694c-1.634,0.785-3.364,1.162-5.167,1.186
			c-1.715,0.024-3.021,0.76-3.956,2.171c-0.368,0.556-0.568,1.156-0.567,1.848c0.019,6.868,0.013,13.736,0.013,20.602
			C63.277,65.124,63.277,65.296,63.277,65.563z"/>
	</g>
</g>
</svg>
