<?xml version="1.0" encoding="utf-8"?>
<!-- Generator: Adobe Illustrator 16.0.0, SVG Export Plug-In . SVG Version: 6.00 Build 0)  -->
<!DOCTYPE svg PUBLIC "-//W3C//DTD SVG 1.1//EN" "http://www.w3.org/Graphics/SVG/1.1/DTD/svg11.dtd">
<svg version="1.1" id="Capa_1" xmlns="http://www.w3.org/2000/svg" xmlns:xlink="http://www.w3.org/1999/xlink" x="0px" y="0px"
	 width="64px" height="64px" viewBox="0 0 64 64" enable-background="new 0 0 64 64" xml:space="preserve">
<g id="Fpb9IR_3_">
	<g>
		<path fill="#FFFFFF" d="M30.734,2.034c1.22,0,2.445,0,3.666,0c0.139,0.032,0.281,0.076,0.42,0.082c3.075,0.247,6.068,0.923,8.932,2.092
			c5.032,2.061,9.229,5.24,12.494,9.577c3.098,4.096,5.02,8.692,5.664,13.799c0.088,0.683,0.199,1.365,0.287,2.042
			c0,1.227,0,2.446,0,3.667c-0.034,0.145-0.075,0.277-0.088,0.416c-0.24,2.852-0.851,5.613-1.884,8.294
			c-1.505,3.894-3.755,7.302-6.694,10.247c-1.884,1.883-3.985,3.482-6.321,4.791c-4.235,2.371-8.793,3.68-13.647,3.824
			c-5.294,0.171-10.304-0.979-15-3.445c-0.184-0.088-0.442-0.145-0.626-0.088c-2.39,0.74-4.778,1.511-7.168,2.27
			c-1.912,0.606-3.831,1.207-5.736,1.82c-1.015,0.335-2.023,0.689-3.038,1.03c-0.066-0.063-0.129-0.126-0.192-0.196
			c0.092-0.209,0.205-0.424,0.291-0.645c0.303-0.879,0.588-1.77,0.875-2.648c1.353-3.97,2.706-7.939,4.036-11.916
			c0.073-0.221,0.035-0.537-0.066-0.752C6.58,45.543,6.16,44.816,5.784,44.07c-1.094-2.149-1.82-4.425-2.301-6.789
			c-0.854-4.286-0.774-8.565,0.269-12.819c1.081-4.387,3.088-8.325,5.992-11.795c2.229-2.648,4.836-4.861,7.857-6.6
			c3.41-1.966,7.055-3.236,10.961-3.736C29.273,2.23,30.004,2.123,30.734,2.034z M9.248,55.139c0.465-0.139,0.818-0.24,1.163-0.348
			c2.648-0.841,5.307-1.676,7.946-2.529c0.338-0.107,0.604-0.057,0.894,0.107c1.053,0.595,2.093,1.195,3.187,1.688
			c4.226,1.903,8.656,2.491,13.239,1.94c2.569-0.303,5.025-1.012,7.374-2.117c1.918-0.892,3.711-1.998,5.329-3.344
			c2.237-1.859,4.114-4.039,5.625-6.543c1.632-2.725,2.69-5.657,3.167-8.779c0.554-3.629,0.316-7.213-0.732-10.734
			c-0.942-3.186-2.497-6.056-4.603-8.61c-2.288-2.781-5.069-4.975-8.318-6.574c-2.244-1.1-4.583-1.877-7.048-2.244
			c-4.988-0.74-9.798-0.152-14.396,1.979c-2.74,1.277-5.187,2.971-7.302,5.114c-1.412,1.416-2.626,2.99-3.663,4.697
			c-1.309,2.149-2.237,4.444-2.844,6.877c-0.582,2.371-0.762,4.792-0.62,7.225c0.127,2.231,0.56,4.399,1.28,6.499
			c0.762,2.23,1.852,4.305,3.195,6.252c0.11,0.157,0.146,0.461,0.082,0.65c-0.752,2.244-1.529,4.507-2.291,6.751
			C9.703,53.735,9.498,54.387,9.248,55.139z"/>
		<path fill="#FFFFFF" d="M23.332,18.071c0.158,0.012,0.332,0.05,0.477,0.031c0.939-0.133,1.429,0.379,1.755,1.163
			c0.727,1.751,1.432,3.515,2.206,5.24c0.356,0.803,0.199,1.479-0.278,2.111c-0.471,0.645-0.996,1.264-1.521,1.871
			c-0.42,0.48-0.521,0.879-0.189,1.429c1.409,2.307,3.116,4.368,5.304,5.986c1.375,1.024,2.886,1.808,4.446,2.497
			c0.914,0.41,1.262,0.341,1.919-0.449c0.673-0.797,1.327-1.611,1.966-2.434c0.506-0.645,0.897-0.815,1.618-0.48
			c1.979,0.904,3.954,1.865,5.93,2.781c0.474,0.221,0.645,0.588,0.626,1.081c-0.038,1.125-0.206,2.219-0.743,3.211
			c-0.427,0.778-1.141,1.29-1.843,1.802c-1.242,0.872-2.671,1.334-4.149,1.391c-1.009,0.038-2.083-0.202-3.057-0.5
			c-1.732-0.537-3.438-1.188-5.114-1.857c-1.788-0.721-3.369-1.795-4.86-2.996c-2.807-2.276-5.083-5.02-7.105-8.003
			c-1.144-1.669-2.089-3.414-2.449-5.398c-0.478-2.63,0.041-5.057,1.896-7.08c0.335-0.36,0.686-0.733,1.084-1.012
			C21.859,18.014,22.596,17.989,23.332,18.071z"/>
	</g>
</g>
</svg>
