<?xml version="1.0" encoding="utf-8"?>
<!-- Generator: Adobe Illustrator 16.0.0, SVG Export Plug-In . SVG Version: 6.00 Build 0)  -->
<!DOCTYPE svg PUBLIC "-//W3C//DTD SVG 1.1//EN" "http://www.w3.org/Graphics/SVG/1.1/DTD/svg11.dtd">
<svg version="1.1" id="Capa_1" xmlns="http://www.w3.org/2000/svg" xmlns:xlink="http://www.w3.org/1999/xlink" x="0px" y="0px"
	 width="64px" height="64px" viewBox="0 0 64 64" enable-background="new 0 0 64 64" xml:space="preserve">
<g id="gHfmXQ_2_">
	<g>
		<path fill="#FFFFFF" d="M35.98,62.866c-2.854,0-5.718,0-8.573,0c-0.234-0.14-0.446-0.365-0.701-0.41
			C13.479,60.098,3.64,50.193,1.464,37.043c-0.036-0.186-0.252-0.339-0.388-0.51c0-2.788,0-5.58,0-8.367
			c0.14-0.289,0.358-0.563,0.411-0.861C3.645,14.316,13.672,4.254,26.645,2.054c0.338-0.059,0.643-0.284,0.965-0.433
			c2.787,0,5.579,0,8.37,0c0.208,0.14,0.401,0.361,0.625,0.401c3.416,0.568,6.677,1.601,9.686,3.315
			c8.609,4.889,13.863,12.186,15.615,21.972c0.041,0.235,0.269,0.433,0.41,0.649c0,2.855,0,5.719,0,8.575
			c-0.185,0.478-0.435,0.947-0.532,1.443c-2.478,12.722-12.373,22.311-25.26,24.488C36.323,62.506,36.161,62.735,35.98,62.866z
			 M58.217,32.27C58.201,17.572,46.383,5.738,31.696,5.72C17.066,5.702,5.167,17.617,5.18,32.27
			c0.011,14.663,11.891,26.51,26.57,26.506C46.34,58.763,58.23,46.86,58.217,32.27z"/>
		<path fill="#FFFFFF" d="M33.572,30.056c0.499,0,0.861,0,1.22,0c2.892,0,5.777,0.009,8.671-0.004
			c1.044-0.004,1.89,0.333,2.286,1.344c0.532,1.358-0.424,2.707-1.957,2.72c-4.043,0.036-8.091,0.027-12.132,0.005
			c-1.326-0.005-2.133-0.754-2.14-2.076c-0.032-5.403-0.027-10.814,0-16.213c0.004-1.339,0.886-2.183,2.07-2.165
			c1.178,0.014,1.968,0.871,1.971,2.242c0.02,4.316,0.009,8.632,0.009,12.948C33.572,29.208,33.572,29.573,33.572,30.056z"/>
	</g>
</g>
</svg>
