<?xml version="1.0" encoding="utf-8"?>
<!-- Generator: Adobe Illustrator 16.0.0, SVG Export Plug-In . SVG Version: 6.00 Build 0)  -->
<!DOCTYPE svg PUBLIC "-//W3C//DTD SVG 1.1//EN" "http://www.w3.org/Graphics/SVG/1.1/DTD/svg11.dtd">
<svg version="1.1" id="Capa_1" xmlns="http://www.w3.org/2000/svg" xmlns:xlink="http://www.w3.org/1999/xlink" x="0px" y="0px"
	 width="64px" height="64px" viewBox="0 0 64 64" enable-background="new 0 0 64 64" xml:space="preserve">
<g>
	<path fill="#FFFFFF" stroke="#FFFFFF" stroke-width="2" stroke-miterlimit="10" d="M32.112,31.161c2.363,0,4.287-1.926,4.287-4.289
		s-1.924-4.284-4.287-4.284c-2.365,0-4.289,1.926-4.289,4.284C27.823,29.235,29.747,31.161,32.112,31.161L32.112,31.161z
		 M32.112,23.81c1.687,0,3.06,1.371,3.06,3.062c0,1.687-1.373,3.062-3.06,3.062c-1.691,0-3.062-1.376-3.062-3.062
		S30.421,23.81,32.112,23.81L32.112,23.81z"/>
	<path fill="#FFFFFF" stroke="#FFFFFF" stroke-width="2" stroke-miterlimit="10" d="M32.002,48.768l9.395-13.57
		c3.521-4.699,3.012-12.416-1.092-16.52c-2.217-2.215-5.166-3.441-8.305-3.441c-3.137,0-6.087,1.223-8.303,3.437
		c-4.104,4.104-4.618,11.825-1.105,16.502L32.002,48.768z M24.565,19.544c1.986-1.984,4.627-3.076,7.437-3.076
		c2.812,0,5.45,1.092,7.439,3.076c3.702,3.702,4.16,10.679,0.96,14.941l-8.399,12.131l-8.413-12.149
		C20.407,30.223,20.86,23.246,24.565,19.544L24.565,19.544z"/>
	<path fill="#FFFFFF" stroke="#FFFFFF" stroke-width="2" stroke-miterlimit="10" d="M39.533,41.574"/>
</g>
<g id="gHfmXQ_3_">
	<g>
		<path fill="#FFFFFF" d="M36.286,62.622c-2.856,0-5.721,0-8.573,0c-0.236-0.14-0.448-0.365-0.701-0.41
			C13.781,59.854,3.945,49.949,1.768,36.799c-0.034-0.186-0.251-0.339-0.389-0.51c0-2.792,0-5.579,0-8.37
			c0.143-0.284,0.361-0.56,0.413-0.862C3.95,14.073,13.976,4.012,26.951,1.811c0.336-0.059,0.643-0.284,0.965-0.433
			c2.787,0,5.579,0,8.37,0c0.205,0.14,0.399,0.36,0.625,0.396c3.414,0.568,6.677,1.605,9.683,3.319
			c8.611,4.884,13.863,12.182,15.615,21.968c0.043,0.239,0.269,0.438,0.413,0.654c0,2.85,0,5.719,0,8.573
			c-0.185,0.478-0.438,0.947-0.534,1.443C59.609,50.45,49.715,60.043,36.83,62.217C36.627,62.262,36.467,62.491,36.286,62.622z
			 M58.518,32.027C58.505,17.329,46.684,5.495,31.997,5.478C17.367,5.459,5.47,17.374,5.483,32.027
			c0.012,14.657,11.889,26.505,26.57,26.5C46.646,58.519,58.531,46.616,58.518,32.027z"/>
	</g>
</g>
</svg>
