<?xml version="1.0" encoding="utf-8"?>
<!-- Generator: Adobe Illustrator 16.0.0, SVG Export Plug-In . SVG Version: 6.00 Build 0)  -->
<!DOCTYPE svg PUBLIC "-//W3C//DTD SVG 1.1//EN" "http://www.w3.org/Graphics/SVG/1.1/DTD/svg11.dtd">
<svg version="1.1" id="Capa_1" xmlns="http://www.w3.org/2000/svg" xmlns:xlink="http://www.w3.org/1999/xlink" x="0px" y="0px"
	 width="64px" height="64px" viewBox="0 0 64 64" enable-background="new 0 0 64 64" xml:space="preserve">
<g id="AqqRQp_5_">
	<g>
		<path fill="#000000" d="M27.92,1.384c2.725,0,5.444,0,8.166,0c0.281,0.14,0.548,0.365,0.846,0.415
			c13.024,2.165,23.074,12.213,25.265,25.273c0.049,0.298,0.274,0.564,0.426,0.843c0,2.724,0,5.444,0,8.164
			c-0.145,0.284-0.348,0.55-0.426,0.848c-0.23,0.956-0.336,1.944-0.625,2.882c-3.755,12.43-11.994,19.916-24.762,22.401
			c-0.257,0.05-0.491,0.266-0.729,0.405c-2.724,0-5.441,0-8.165,0c-0.282-0.14-0.546-0.365-0.844-0.419
			C13.938,59.934,4.069,50.074,1.801,36.928c-0.049-0.298-0.272-0.563-0.422-0.848c0-2.72,0-5.44,0-8.164
			c0.145-0.275,0.368-0.545,0.422-0.839C4.124,13.859,13.865,4.122,27.077,1.808C27.372,1.754,27.639,1.524,27.92,1.384z
			 M32.081,5.028C17.04,5.069,4.98,17.124,5.028,32.075C5.077,46.999,17.166,59,32.124,58.973
			c14.819-0.031,26.89-12.186,26.848-27.047C58.929,17.092,46.828,4.992,32.081,5.028z"/>
		<path fill="#000000" d="M36.104,41.181c1.903,3.292,3.788,6.553,5.724,9.908c-2.17,1.345-4.341,2.31-6.894,1.223
			c-2.136-0.911-3.899-2.358-5.489-3.996c-6-6.151-10.206-13.35-12.379-21.685c-0.399-1.538-0.591-3.144-0.706-4.727
			c-0.183-2.499,0.777-4.51,2.934-5.876c0.521-0.329,1.035-0.645,1.68-1.051c1.928,3.333,3.838,6.639,5.772,9.985
			c-1.851,1.407-2.056,3.329-1.695,5.354c0.72,4.023,2.58,7.425,5.8,9.99C32.608,41.718,33.873,41.866,36.104,41.181z"/>
		<path fill="#000000" d="M26.132,11.162c0.269,0.226,0.767,0.456,0.999,0.843c1.793,3.036,3.547,6.106,5.3,9.169
			c0.471,0.816,0.288,1.502-0.532,1.984c-0.875,0.519-1.746,1.051-2.644,1.529c-0.739,0.393-1.427,0.23-1.849-0.492
			c-1.817-3.112-3.61-6.224-5.4-9.349c-0.37-0.649-0.258-1.312,0.343-1.718c1.015-0.667,2.104-1.231,3.168-1.831
			C25.632,11.234,25.782,11.238,26.132,11.162z"/>
		<path fill="#000000" d="M43.322,50.854c-0.296-0.239-0.783-0.478-1.011-0.866c-1.797-3.035-3.547-6.106-5.312-9.168
			c-0.446-0.785-0.277-1.452,0.478-1.917c0.866-0.541,1.759-1.037,2.647-1.533c0.832-0.465,1.514-0.262,1.987,0.55
			c1.771,3.045,3.526,6.111,5.294,9.174c0.397,0.686,0.341,1.353-0.324,1.795c-0.961,0.627-1.98,1.182-2.988,1.745
			C43.929,50.729,43.717,50.746,43.322,50.854z"/>
	</g>
</g>
</svg>
