<?xml version="1.0" encoding="utf-8"?>
<!-- Generator: Adobe Illustrator 16.0.3, SVG Export Plug-In . SVG Version: 6.00 Build 0)  -->
<!DOCTYPE svg PUBLIC "-//W3C//DTD SVG 1.1//EN" "http://www.w3.org/Graphics/SVG/1.1/DTD/svg11.dtd">
<svg version="1.1" id="Layer_1" xmlns="http://www.w3.org/2000/svg" xmlns:xlink="http://www.w3.org/1999/xlink" x="0px" y="0px"
	 width="104.75px" height="94.1px" viewBox="0 0 104.75 94.1" enable-background="new 0 0 104.75 94.1" xml:space="preserve">
<g>
	<path fill="#1E140F" d="M24.712,10.919c0-0.861-0.698-1.559-1.558-1.559h-8.64c-0.86,0-1.558,0.697-1.558,1.559v6.584
		c0,0.861,0.697,1.558,1.558,1.558h8.64c0.86,0,1.558-0.696,1.558-1.558V10.919z M21.599,15.947h-5.528v-3.47h5.528V15.947z
		 M24.712,28.782c0-3.031-2.467-5.5-5.5-5.5h-0.754c-3.032,0-5.5,2.469-5.5,5.5v6.331c0,3.032,2.468,5.5,5.5,5.5h0.754
		c3.033,0,5.5-2.468,5.5-5.5V28.782z M21.599,35.111c0,1.316-1.071,2.388-2.387,2.388h-0.754c-1.316,0-2.387-1.072-2.387-2.388
		v-6.329c0-1.314,1.071-2.386,2.387-2.386h0.754c1.315,0,2.387,1.072,2.387,2.386V35.111z M71.212,45.157v-5.863
		c0-0.861,0.698-1.557,1.558-1.557c0.861,0,1.557,0.695,1.557,1.557v5.863c0,0.858-0.695,1.556-1.557,1.556
		C71.91,46.712,71.212,46.015,71.212,45.157L71.212,45.157z M87.534,51.42V12.477h-55.68V51.42H60.72
		c0.861,0,1.559,0.697,1.559,1.557c0,0.86-0.697,1.557-1.559,1.557H30.296c-0.86,0-1.558-0.696-1.558-1.557V10.919
		c0-0.861,0.698-1.559,1.558-1.559h58.796c0.859,0,1.557,0.697,1.557,1.559v42.057c0,0.86-0.697,1.557-1.557,1.557h-4.275
		c-0.857,0-1.556-0.696-1.556-1.557c0-0.859,0.698-1.557,1.556-1.557H87.534z M97.709,0.995H7.826c-0.861,0-1.558,0.698-1.558,1.559
		v58.789c0,0.859,0.697,1.557,1.558,1.557h4.979v2.754c0,3.236,2.633,5.869,5.869,5.869h29.782c1.519,0,2.755,1.236,2.755,2.754
		c0,1.521-1.236,2.756-2.755,2.756H18.481c-3.183,0-5.676,2.576-5.676,5.868l-0.458,0.012c-1.981,0-3.591,1.611-3.591,3.591v5.935
		c0,0.858,0.697,1.557,1.556,1.557h7.969c0.86,0,1.558-0.698,1.558-1.557v-5.935c0-1.981-1.613-3.591-3.592-3.591h-0.328V82.9
		c0-1.571,1.102-2.755,2.563-2.755h29.974c3.236,0,5.869-2.633,5.869-5.869c0-3.234-2.632-5.868-5.869-5.868H18.674
		c-1.519,0-2.755-1.236-2.755-2.755v-2.754H60.72c0.861,0,1.559-0.697,1.559-1.557c0-0.86-0.697-1.557-1.559-1.557H9.382V4.109
		h86.771v55.677H84.817c-0.857,0-1.556,0.696-1.556,1.557c0,0.859,0.698,1.557,1.556,1.557h12.892c0.859,0,1.557-0.697,1.557-1.557
		V2.554C99.268,1.693,98.568,0.995,97.709,0.995L97.709,0.995z M16.247,86.024c0.258,0,0.478,0.22,0.478,0.479v4.376h-4.855v-4.376
		c0-0.259,0.218-0.479,0.478-0.479H16.247z M78.64,30.556l-1.812-4.508c-0.236-0.59-0.809-0.977-1.445-0.977h-1.057v-2.719
		c0-0.859-0.697-1.557-1.557-1.557s-1.558,0.697-1.558,1.557v2.719h-1.058c-0.636,0-1.207,0.387-1.444,0.977l-2.001,4.979
		c-0.674,0.483-1.114,1.271-1.114,2.162v53.784c0,0.59,0.326,1.101,0.809,1.366v4.099c0,0.859,0.697,1.557,1.557,1.557h9.617
		c0.861,0,1.559-0.697,1.559-1.557v-4.099c0.482-0.266,0.81-0.776,0.81-1.366v-54.88C79.945,31.317,79.379,30.676,78.64,30.556
		L78.64,30.556z M71.209,28.186h3.123l0.944,2.349h-5.012L71.209,28.186z M76.021,90.879h-6.502V88.53h6.502V90.879z M76.83,85.416
		h-8.12V33.648h8.12V85.416z M14.515,44.833c-0.86,0-1.558,0.697-1.558,1.557v6.586c0,0.86,0.697,1.557,1.558,1.557h8.64
		c0.86,0,1.558-0.696,1.558-1.557V46.39c0-0.86-0.698-1.557-1.558-1.557H14.515z M21.599,51.42h-5.528v-3.472h5.528V51.42z
		 M21.599,51.42"/>
</g>
</svg>
