<?xml version="1.0" encoding="utf-8"?>
<!-- Generator: Adobe Illustrator 16.0.3, SVG Export Plug-In . SVG Version: 6.00 Build 0)  -->
<!DOCTYPE svg PUBLIC "-//W3C//DTD SVG 1.1//EN" "http://www.w3.org/Graphics/SVG/1.1/DTD/svg11.dtd">
<svg version="1.1" id="Layer_1" xmlns="http://www.w3.org/2000/svg" xmlns:xlink="http://www.w3.org/1999/xlink" x="0px" y="0px"
	 width="104.75px" height="94.1px" viewBox="0 0 104.75 94.1" enable-background="new 0 0 104.75 94.1" xml:space="preserve">
<g>
	<defs>
		<rect id="SVGID_1_" x="-7.691" y="-5.928" width="120.26" height="99.222"/>
	</defs>
	<clipPath id="SVGID_2_">
		<use xlink:href="#SVGID_1_"  overflow="visible"/>
	</clipPath>
	<path clip-path="url(#SVGID_2_)" d="M101.634,63.536H95.32v-6.31h6.313V63.536z M55.464,11.376h-6.312V5.063h6.312V11.376z
		 M9.294,63.536H2.982v-6.31h6.312V63.536z M100.094,53.984C99.993,42.228,95.603,30.982,87.7,22.276
		c-5.035-5.548-11.229-9.777-18.068-12.437h11.334v-3.24H58.702V1.823H45.911v4.776H23.649v3.24h11.334
		c-6.841,2.659-13.034,6.889-18.066,12.437C9.011,30.982,4.62,42.228,4.522,53.984h-4.781v12.791h12.794V53.984H7.763
		c0.101-10.951,4.19-21.423,11.552-29.53c6.992-7.706,16.382-12.688,26.596-14.157v4.319h12.791v-4.319
		c10.216,1.469,19.604,6.451,26.599,14.157c7.363,8.107,11.451,18.579,11.551,29.53H92.08v12.791h12.792V53.984H100.094z"/>
	<path clip-path="url(#SVGID_2_)" d="M88.923,5.063c1.741,0,3.157,1.416,3.157,3.154c0,1.741-1.416,3.156-3.157,3.156
		c-1.738,0-3.154-1.415-3.154-3.156C85.769,6.479,87.185,5.063,88.923,5.063 M88.923,14.616c3.53,0,6.399-2.868,6.399-6.398
		c0-3.524-2.869-6.394-6.399-6.394c-3.523,0-6.395,2.87-6.395,6.394C82.528,11.748,85.399,14.616,88.923,14.616"/>
	<path clip-path="url(#SVGID_2_)" d="M15.691,5.063c1.74,0,3.156,1.416,3.156,3.154c0,1.741-1.416,3.156-3.156,3.156
		c-1.741,0-3.156-1.415-3.156-3.156C12.536,6.479,13.951,5.063,15.691,5.063 M15.691,14.616c3.527,0,6.397-2.868,6.397-6.398
		c0-3.524-2.87-6.394-6.397-6.394c-3.528,0-6.396,2.87-6.396,6.394C9.296,11.748,12.164,14.616,15.691,14.616"/>
	<rect x="36.389" y="89.384" clip-path="url(#SVGID_2_)" width="31.84" height="3.24"/>
	<polygon clip-path="url(#SVGID_2_)" points="31.333,70.278 39.543,85.057 39.543,87.822 42.784,87.822 42.784,84.217 
		35.075,70.339 52.309,41.617 69.543,70.339 61.833,84.217 61.833,87.822 65.071,87.822 65.071,85.057 73.283,70.278 52.309,35.318 
			"/>
	<polygon clip-path="url(#SVGID_2_)" points="53.93,87.82 53.93,71.931 55.492,71.931 55.492,68.691 49.124,68.691 49.124,71.931 
		50.688,71.931 50.688,87.82 	"/>
</g>
</svg>
