<?xml version="1.0" encoding="utf-8"?>
<!-- Generator: Adobe Illustrator 16.0.3, SVG Export Plug-In . SVG Version: 6.00 Build 0)  -->
<!DOCTYPE svg PUBLIC "-//W3C//DTD SVG 1.1//EN" "http://www.w3.org/Graphics/SVG/1.1/DTD/svg11.dtd">
<svg version="1.1" id="Layer_1" xmlns="http://www.w3.org/2000/svg" xmlns:xlink="http://www.w3.org/1999/xlink" x="0px" y="0px"
	 width="104.75px" height="94.1px" viewBox="0 0 104.75 94.1" enable-background="new 0 0 104.75 94.1" xml:space="preserve">
<g>
	<path d="M53.022,46.873l30.695-30.696c0.272-0.271,0.424-0.64,0.424-1.023c0-0.384-0.151-0.752-0.424-1.023
		C74.973,5.384,63.344,0.568,50.977,0.568c-12.369,0-23.997,4.816-32.743,13.562C9.488,22.876,4.672,34.504,4.672,46.873
		c0,12.368,4.816,23.997,13.562,32.742c8.746,8.746,20.374,13.563,32.743,13.563c12.367,0,23.996-4.816,32.741-13.563
		c0.565-0.564,0.565-1.48,0-2.046L53.022,46.873z M50.977,90.283c-11.596,0-22.497-4.517-30.696-12.715S7.566,58.469,7.566,46.873
		c0-11.595,4.515-22.497,12.714-30.696c8.199-8.198,19.1-12.714,30.696-12.714c11.112,0,21.586,4.146,29.655,11.708L49.953,45.85
		c-0.565,0.565-0.565,1.48,0,2.045l30.679,30.681C72.563,86.138,62.089,90.283,50.977,90.283L50.977,90.283z M50.977,90.283"/>
	<path d="M53.146,25.167c2.793,0,5.065-2.271,5.065-5.064c0-0.799-0.648-1.447-1.448-1.447c-0.798,0-1.446,0.648-1.446,1.447
		c0,1.197-0.975,2.171-2.171,2.171c-1.197,0-2.17-0.974-2.17-2.171c0-1.196,0.973-2.17,2.17-2.17c0.8,0,1.448-0.648,1.448-1.447
		s-0.648-1.447-1.448-1.447c-2.792,0-5.064,2.271-5.064,5.064S50.354,25.167,53.146,25.167L53.146,25.167z M53.146,25.167"/>
	<path d="M66.894,45.426c0.8,0,1.446-0.649,1.446-1.448c0-0.798-0.646-1.447-1.446-1.447c-2.394,0-4.341,1.948-4.341,4.342
		c0,2.394,1.947,4.341,4.341,4.341s4.341-1.947,4.341-4.341c0-0.799-0.648-1.447-1.447-1.447s-1.447,0.648-1.447,1.447
		c0,0.797-0.648,1.447-1.446,1.447s-1.447-0.649-1.447-1.447C65.446,46.074,66.096,45.426,66.894,45.426L66.894,45.426z
		 M66.894,45.426"/>
	<path d="M82.81,45.425c-0.798,0-1.445,0.648-1.445,1.447c0,0.797-0.649,1.447-1.448,1.447c-0.798,0-1.446-0.649-1.446-1.447
		c0-0.798,0.648-1.446,1.446-1.446c0.8,0,1.448-0.649,1.448-1.448c0-0.798-0.648-1.447-1.448-1.447c-2.393,0-4.34,1.948-4.34,4.342
		c0,2.394,1.947,4.341,4.34,4.341c2.395,0,4.343-1.947,4.343-4.341C84.259,46.073,83.609,45.425,82.81,45.425L82.81,45.425z
		 M82.81,45.425"/>
	<path d="M95.833,45.425c-0.799,0-1.446,0.648-1.446,1.447c0,0.797-0.649,1.447-1.447,1.447s-1.447-0.649-1.447-1.447
		c0-0.798,0.649-1.446,1.447-1.446c0.8,0,1.447-0.649,1.447-1.448c0-0.798-0.647-1.447-1.447-1.447
		c-2.394,0-4.341,1.948-4.341,4.342c0,2.394,1.947,4.341,4.341,4.341c2.395,0,4.341-1.947,4.341-4.341
		C97.28,46.073,96.633,45.425,95.833,45.425L95.833,45.425z M95.833,45.425"/>
</g>
</svg>
