<?xml version="1.0" encoding="utf-8"?>
<!-- Generator: Adobe Illustrator 16.0.3, SVG Export Plug-In . SVG Version: 6.00 Build 0)  -->
<!DOCTYPE svg PUBLIC "-//W3C//DTD SVG 1.1//EN" "http://www.w3.org/Graphics/SVG/1.1/DTD/svg11.dtd">
<svg version="1.1" id="Layer_1" xmlns="http://www.w3.org/2000/svg" xmlns:xlink="http://www.w3.org/1999/xlink" x="0px" y="0px"
	 width="104.75px" height="94.1px" viewBox="0 0 104.75 94.1" enable-background="new 0 0 104.75 94.1" xml:space="preserve">
<g>
	<path stroke="#D9D9D9" stroke-width="0.8956" stroke-miterlimit="10" d="M102.262,80.053h-2.414V47.592
		c0-2.428-1.979-4.403-4.418-4.403H71.825v-6.175h4.729c2.792,0,5.062-2.264,5.062-5.045V8.566c0-2.783-2.27-5.045-5.062-5.045
		H63.757c-2.791,0-5.063,2.263-5.063,5.045v6.044H6.317c-3.032,0-5.497,2.458-5.497,5.48v39.118c0,3.022,2.465,5.479,5.497,5.479
		h23.675l-1.348,6.032H24.19c-0.921,0-1.669,0.744-1.669,1.662c0,0.922,0.748,1.664,1.669,1.664h12.337v6.006h-2.413
		c-0.922,0-1.669,0.744-1.669,1.663c0,4.016,3.277,7.282,7.306,7.282h56.873c4.029,0,7.308-3.267,7.308-7.282
		C103.931,80.797,103.184,80.053,102.262,80.053L102.262,80.053z M95.43,46.518c0.597,0,1.08,0.482,1.08,1.074v32.459H39.865v-7.657
		c0-0.005,0-0.008,0-0.011s0-0.004,0-0.007V47.592c0-0.592,0.483-1.074,1.078-1.074H95.43z M62.032,8.566
		c0-0.948,0.773-1.718,1.725-1.718h12.797c0.95,0,1.725,0.771,1.725,1.718v0.721H62.032V8.566z M62.032,12.615h16.246v14.859H62.032
		V12.615z M62.032,30.803h16.246v1.165c0,0.948-0.774,1.718-1.725,1.718H63.757c-0.951,0-1.725-0.77-1.725-1.718V30.803z
		 M4.158,20.091c0-1.188,0.968-2.153,2.159-2.153h52.377v14.031c0,2.781,2.271,5.045,5.063,5.045h4.729v6.175H40.943
		c-2.434,0-4.416,1.976-4.416,4.403v6.057H4.158V20.091z M6.317,61.361c-1.191,0-2.159-0.966-2.159-2.152v-2.234h32.369v4.387H6.317
		z M32.065,70.721l1.348-6.033h3.114v6.033H32.065z M96.623,85.671H39.75c-1.593,0-2.969-0.939-3.601-2.292h64.075
		C99.593,84.731,98.216,85.671,96.623,85.671L96.623,85.671z M96.623,85.671"/>
</g>
</svg>
