<?xml version="1.0" encoding="utf-8"?>
<!-- Generator: Adobe Illustrator 16.0.3, SVG Export Plug-In . SVG Version: 6.00 Build 0)  -->
<!DOCTYPE svg PUBLIC "-//W3C//DTD SVG 1.1//EN" "http://www.w3.org/Graphics/SVG/1.1/DTD/svg11.dtd">
<svg version="1.1" id="Layer_1" xmlns="http://www.w3.org/2000/svg" xmlns:xlink="http://www.w3.org/1999/xlink" x="0px" y="0px"
	 width="104.75px" height="94.1px" viewBox="0 0 104.75 94.1" enable-background="new 0 0 104.75 94.1" xml:space="preserve">
<g>
	<path fill="#1E140F" stroke="#D9D9D9" stroke-width="0.75" stroke-miterlimit="10" d="M53.537,36.172
		c-2.348-4.923-7.364-8.345-13.175-8.345c-8.042,0-14.603,6.55-14.603,14.602c0,8.051,6.561,14.601,14.603,14.601
		c5.45,0,10.198-3.011,12.714-7.438c2.29,4.411,6.886,7.438,12.194,7.438c7.573,0,13.737-6.164,13.737-13.745
		c0-7.573-6.164-13.738-13.737-13.738C60.297,29.546,55.953,32.206,53.537,36.172L53.537,36.172z M40.362,53.591
		c-6.155,0-11.162-5.007-11.162-11.162c0-6.157,5.007-11.162,11.162-11.162s11.162,5.005,11.162,11.162
		C51.524,48.584,46.518,53.591,40.362,53.591L40.362,53.591z M75.578,43.284c0,5.686-4.63,10.307-10.308,10.307
		c-5.687,0-10.307-4.621-10.307-10.307c0-5.678,4.62-10.307,10.307-10.307C70.948,32.977,75.578,37.606,75.578,43.284L75.578,43.284
		z M75.578,43.284"/>
	<path fill="#1E140F" stroke="#D9D9D9" stroke-width="0.75" stroke-miterlimit="10" d="M42.937,38.134
		c-2.834,0-5.148,2.308-5.148,5.15s2.314,5.157,5.148,5.157c2.845,0,5.158-2.314,5.158-5.157S45.781,38.134,42.937,38.134
		L42.937,38.134z M42.937,45.003c-0.947,0-1.709-0.772-1.709-1.719c0-0.947,0.762-1.72,1.709-1.72c0.948,0,1.72,0.773,1.72,1.72
		C44.656,44.231,43.885,45.003,42.937,45.003L42.937,45.003z M42.937,45.003"/>
	<g>
		<path fill="#1E140F" stroke="#D9D9D9" stroke-width="0.75" stroke-miterlimit="10" d="M58.402,45.003
			c0,2.842,2.307,5.149,5.148,5.149c2.844,0,5.149-2.307,5.149-5.149c0-2.844-2.306-5.15-5.149-5.15
			C60.709,39.854,58.402,42.16,58.402,45.003L58.402,45.003z M65.271,45.003c0,0.947-0.771,1.719-1.72,1.719
			c-0.947,0-1.719-0.772-1.719-1.719c0-0.948,0.771-1.719,1.719-1.719C64.499,43.284,65.271,44.056,65.271,45.003L65.271,45.003z
			 M65.271,45.003"/>
		<path fill="#1E140F" stroke="#D9D9D9" stroke-width="0.75" stroke-miterlimit="10" d="M74.622,21.479
			c0.008-0.025,0.024-0.043,0.033-0.076c0.033-0.092,0.755-2.398,4.638-3.044c0.931-0.16,1.568-1.041,1.409-1.979
			c-0.151-0.931-1.04-1.569-1.971-1.409c-4.051,0.671-5.938,2.759-6.785,4.185c-0.956-0.755-1.963-1.451-3.011-2.088
			c0.101-0.093,0.227-0.152,0.311-0.269c0.033-0.05,3.95-5.442,8.328-6.173c0.939-0.16,1.567-1.04,1.417-1.979
			c-0.159-0.932-1.049-1.568-1.979-1.409c-5.787,0.965-10.374,7.296-10.559,7.564c-0.168,0.227-0.243,0.486-0.285,0.747
			c-1.091-0.529-2.214-0.999-3.38-1.4c1.082-2.718,3.976-8.488,7.321-9.604c0.897-0.302,1.384-1.274,1.082-2.172
			c-0.293-0.897-1.266-1.384-2.172-1.082c-5.393,1.795-8.814,9.988-9.544,11.9c-1.292-0.302-2.608-0.537-3.967-0.67
			c1.073-1.971,3.052-4.949,5.491-6.417c0.815-0.485,1.072-1.542,0.589-2.355c-0.486-0.814-1.535-1.074-2.356-0.587
			c-4.378,2.633-7.053,8.244-7.498,9.234c-0.831,0.016-1.65,0.049-2.465,0.125C47.969,9.838,43.635,2.064,36.934,2.064
			c-0.949,0-1.721,0.763-1.721,1.711c0,0.947,0.771,1.718,1.721,1.718c3.863,0,7.145,4.555,8.772,7.59
			c-1.646,0.361-3.237,0.856-4.781,1.46c-1.4-1.736-4.353-4.856-7.951-5.577c-0.931-0.184-1.837,0.419-2.022,1.343
			c-0.185,0.93,0.422,1.835,1.342,2.029c2.055,0.403,4.053,2.197,5.368,3.673c-0.897,0.47-1.761,0.981-2.606,1.526
			c-1.503-1.368-6.232-5.317-12.313-6.835c-0.915-0.236-1.845,0.327-2.081,1.249c-0.226,0.924,0.328,1.854,1.249,2.081
			c4.698,1.174,8.588,4.126,10.3,5.585c-0.361,0.293-0.695,0.621-1.04,0.931c-1.273-0.965-3.714-2.172-7.983-2.172
			c-0.947,0-1.72,0.771-1.72,1.719c0,0.948,0.772,1.72,1.72,1.72c2.935,0,4.637,0.679,5.52,1.215
			c-5.016,5.619-8.094,13-8.094,21.101v47.242c0,0.947,0.771,1.719,1.719,1.719h60.115c0.948,0,1.719-0.771,1.719-1.719V44.139
			C84.165,35.267,80.501,27.249,74.622,21.479L74.622,21.479z M80.728,89.662H24.052V44.139c0-11.481,6.877-21.377,16.723-25.822
			c0.19-0.042,0.375-0.11,0.545-0.227c0.023-0.017,0.032-0.041,0.058-0.059c3.389-1.434,7.103-2.223,11.012-2.223
			c15.625,0,28.339,12.706,28.339,28.33V89.662z M80.728,89.662"/>
	</g>
	<path fill="#1E140F" stroke="#D9D9D9" stroke-width="0.75" stroke-miterlimit="10" d="M51.533,79.355
		c4.277,0,8.268-2.307,10.406-6.014c0.312-0.531,0.312-1.184,0.009-1.721c-0.31-0.527-0.881-0.854-1.493-0.854H42.601
		c-0.612,0-1.174,0.327-1.484,0.854c-0.311,0.537-0.311,1.189,0,1.721C43.255,77.049,47.246,79.355,51.533,79.355L51.533,79.355z
		 M56.673,74.205c-2.927,2.187-7.364,2.187-10.29,0H56.673z M56.673,74.205"/>
</g>
</svg>
