<?xml version="1.0" encoding="utf-8"?>
<!-- Generator: Adobe Illustrator 16.0.3, SVG Export Plug-In . SVG Version: 6.00 Build 0)  -->
<!DOCTYPE svg PUBLIC "-//W3C//DTD SVG 1.1//EN" "http://www.w3.org/Graphics/SVG/1.1/DTD/svg11.dtd">
<svg version="1.1" id="Layer_1" xmlns="http://www.w3.org/2000/svg" xmlns:xlink="http://www.w3.org/1999/xlink" x="0px" y="0px"
	 width="104.75px" height="94.1px" viewBox="0 0 104.75 94.1" enable-background="new 0 0 104.75 94.1" xml:space="preserve">
<g>
	<path d="M78.891,41.479V29.69h0.128c3.121,0,5.757-2.667,5.757-5.826c0-3.156-2.636-5.823-5.757-5.823h-6.48
		c-0.836-1.785-2.731-2.912-5.164-2.912h-7.605V8.635c0-4.599-3.765-8.067-8.759-8.067h-0.033c-5.05,0-8.858,3.468-8.858,8.067
		v6.494h-7.523c-0.157,0-0.312,0-0.464-0.002c-0.152,0-0.302-0.002-0.45-0.002c-1.084,0-2.132,0.038-3.029,0.475
		c-0.698,0.34-1.51,1.036-1.719,2.441h-6.061c-3.119,0-5.755,2.667-5.755,5.826c0,3.156,2.636,5.823,5.755,5.823h0.125v11.788
		c-2.659,0.508-4.413,2.373-4.413,4.879v10.999c0,2.409,1.979,4.369,4.413,4.369h2.941c2.434,0,4.414-1.96,4.414-4.369V46.357
		c0-2.518-1.755-4.388-4.413-4.885V29.69h3.076c0.534,2.55,2.587,4.792,5.114,5.393l0.833,0.216l2.478,8.281
		c-2.396,1.201-4.043,3.662-4.043,6.497c0,2.938,1.77,5.475,4.308,6.622v3.82c-1.712,0.601-2.942,2.22-2.942,4.118
		c0,1.899,1.23,3.518,2.942,4.118v3.163c0,0.012,0.002,0.021,0.002,0.031c-4.245,0.338-7.355,3.371-7.355,7.324v11.574
		c-0.813,0-1.472,0.65-1.472,1.456c0,0.804,0.659,1.456,1.472,1.456h17.65c0.812,0,1.47-0.652,1.47-1.456
		c0-0.806-0.658-1.456-1.47-1.456V79.274c0-4.034-3.052-7.019-7.356-7.327c0-0.009,0.002-0.02,0.002-0.028v-3.163
		c1.712-0.601,2.941-2.219,2.941-4.118c0-1.898-1.229-3.518-2.941-4.118v-3.164c0.035,0,0.07,0.003,0.106,0.003h5.777
		c0.813,0,1.472-0.654,1.472-1.458h5.883c0,0.804,0.658,1.458,1.471,1.458h5.847c0.014,0,0.023-0.002,0.036-0.002v3.163
		c-1.712,0.601-2.941,2.22-2.941,4.118c0,1.899,1.229,3.518,2.941,4.118v3.163c0,0.012,0.002,0.021,0.002,0.031
		c-4.244,0.338-7.355,3.371-7.355,7.324v11.574c-0.813,0-1.471,0.65-1.471,1.456c0,0.804,0.659,1.456,1.471,1.456h17.65
		c0.813,0,1.471-0.652,1.471-1.456c0-0.806-0.658-1.456-1.471-1.456V79.274c0-4.034-3.052-7.019-7.356-7.327
		c0.001-0.009,0.003-0.02,0.003-0.028v-3.163c1.711-0.601,2.941-2.219,2.941-4.118c0-1.898-1.23-3.518-2.941-4.118v-3.788
		c2.574-1.135,4.376-3.689,4.376-6.654c0-2.86-1.675-5.337-4.103-6.529l2.464-8.233l0.874-0.228c2.51-0.6,4.55-2.843,5.078-5.396
		h3.077v11.783c-2.655,0.498-4.408,2.367-4.408,4.884v8.005c-0.002,0.028-0.005,0.054-0.005,0.082s0.003,0.057,0.005,0.083v2.829
		c0,2.409,1.979,4.369,4.412,4.369h2.941c2.434,0,4.413-1.96,4.413-4.369V46.357C83.308,43.852,81.554,41.986,78.891,41.479
		L78.891,41.479z M25.938,58.814h-2.941c-0.811,0-1.471-0.654-1.471-1.458V55.9h5.883v1.456
		C27.409,58.16,26.75,58.814,25.938,58.814L25.938,58.814z M27.409,46.357v6.631h-5.883v-6.631c0-1.552,1.6-2.104,2.966-2.104
		C24.979,44.253,27.409,44.357,27.409,46.357L27.409,46.357z M33.293,90.849v-2.913h11.768v2.913H33.293z M45.061,79.274v5.75
		H33.293v-5.75c0-2.14,1.629-4.444,5.205-4.444H39.9C43.446,74.83,45.061,77.135,45.061,79.274L45.061,79.274z M39.176,66.095
		c-0.811,0-1.471-0.653-1.471-1.457s0.66-1.457,1.471-1.457c0.812,0,1.472,0.653,1.472,1.457S39.988,66.095,39.176,66.095
		L39.176,66.095z M56.828,90.849v-2.913h11.766v2.913H56.828z M68.594,79.274v5.75H56.828v-5.75c0-2.14,1.628-4.444,5.203-4.444
		h1.403C66.98,74.83,68.594,77.135,68.594,79.274L68.594,79.274z M62.711,66.095c-0.811,0-1.472-0.653-1.472-1.457
		s0.661-1.457,1.472-1.457s1.472,0.653,1.472,1.457S63.521,66.095,62.711,66.095L62.711,66.095z M81.833,23.865
		c0,1.58-1.289,2.914-2.814,2.914h-6.012v-5.823h6.012C80.544,20.955,81.833,22.287,81.833,23.865L81.833,23.865z M45.061,8.635
		c0-2.987,2.488-5.154,5.916-5.154h0.033c3.373,0,5.819,2.167,5.819,5.154v6.494H45.061V8.635z M20.059,23.865
		c0-1.578,1.289-2.91,2.814-2.91h6.008v5.823h-6.008C21.348,26.778,20.059,25.445,20.059,23.865L20.059,23.865z M40.754,54.444
		c-2.434,0-4.414-1.958-4.414-4.367c0-2.41,1.98-4.369,4.414-4.369h4.307v8.736H40.754z M48.002,52.988v-5.823h5.883v5.823H48.002z
		 M61.203,54.444h-4.375v-8.736h4.375c2.434,0,4.413,1.959,4.413,4.369C65.616,52.486,63.637,54.444,61.203,54.444L61.203,54.444z
		 M61.608,42.808c-0.134-0.007-0.27-0.011-0.405-0.011h-5.847c-0.813,0-1.471,0.652-1.471,1.457h-5.883
		c0-0.805-0.659-1.457-1.472-1.457h-5.777c-0.159,0-0.317,0.007-0.474,0.017l-1.991-6.652l8.199,2.126
		c0.012,0.002,0.023,0.005,0.034,0.007c1.21,0.284,2.799,0.439,4.474,0.439c1.685,0,3.283-0.156,4.499-0.441
		c0.011-0.004,0.022-0.008,0.035-0.01l8.063-2.101L61.608,42.808z M70.065,28.407c0,1.708-1.361,3.472-2.972,3.851
		c-0.011,0.003-0.021,0.006-0.033,0.008l-12.264,3.196c-0.983,0.229-2.368,0.361-3.801,0.361c-1.425,0-2.801-0.129-3.781-0.357
		L34.86,32.263c-0.011-0.004-0.022-0.006-0.033-0.009c-1.629-0.382-3.005-2.144-3.005-3.848v-9.642c0-0.407,0.082-0.522,0.083-0.523
		c0.091-0.091,0.474-0.203,1.777-0.203c0.143,0,0.287,0.001,0.435,0.003c0.157,0,0.317,0,0.479,0h32.779
		c0.809,0,2.691,0.213,2.691,2.179V28.407z M77.396,44.253c1.37,0.001,2.97,0.553,2.97,2.104v6.631h-5.884v-6.631
		C74.481,44.357,76.913,44.253,77.396,44.253L77.396,44.253z M78.895,58.814h-2.941c-0.811,0-1.471-0.654-1.471-1.458V55.9h5.884
		v1.456C80.366,58.16,79.705,58.814,78.895,58.814L78.895,58.814z M78.895,58.814"/>
	<path d="M56.279,23.913c-0.787,0.198-1.262,0.993-1.061,1.771c0.092,0.355,0.138,0.722,0.138,1.093
		c0,2.424-1.991,4.395-4.439,4.395s-4.439-1.971-4.439-4.395c0-2.422,1.991-4.395,4.439-4.395c0.382,0,0.761,0.048,1.126,0.143
		c0.786,0.205,1.589-0.262,1.795-1.041c0.205-0.778-0.266-1.573-1.052-1.777c-0.608-0.157-1.235-0.236-1.869-0.236
		c-4.07,0-7.381,3.277-7.381,7.306c0,4.03,3.312,7.307,7.381,7.307c4.07,0,7.381-3.277,7.381-7.307c0-0.612-0.078-1.223-0.229-1.814
		C57.868,24.186,57.066,23.713,56.279,23.913L56.279,23.913z M56.279,23.913"/>
	<path d="M53.886,7.849h-5.883c-0.813,0-1.472,0.652-1.472,1.457c0,0.805,0.659,1.456,1.472,1.456h5.883
		c0.813,0,1.471-0.651,1.471-1.456C55.356,8.501,54.698,7.849,53.886,7.849L53.886,7.849z M53.886,7.849"/>
</g>
</svg>
