<?xml version="1.0" encoding="utf-8"?>
<!-- Generator: Adobe Illustrator 16.0.3, SVG Export Plug-In . SVG Version: 6.00 Build 0)  -->
<!DOCTYPE svg PUBLIC "-//W3C//DTD SVG 1.1//EN" "http://www.w3.org/Graphics/SVG/1.1/DTD/svg11.dtd">
<svg version="1.1" id="Layer_1" xmlns="http://www.w3.org/2000/svg" xmlns:xlink="http://www.w3.org/1999/xlink" x="0px" y="0px"
	 width="104.75px" height="94.1px" viewBox="0 0 104.75 94.1" enable-background="new 0 0 104.75 94.1" xml:space="preserve">
<g>
	<path fill="#1E140F" stroke="#1E140F" stroke-width="0.5138" stroke-miterlimit="10" d="M97.806,16.113H76.824V7.142
		c0-2.929-2.439-3.989-4.08-3.989h-3.292V2.818c0-0.609-0.506-1.107-1.13-1.107H37.361c-0.625,0-1.131,0.498-1.131,1.107v0.331
		h-3.289c-1.64,0-4.08,1.064-4.08,3.993v8.971H7.879c-1.921,0-5.556,1.133-5.556,5.42V38.81c0,0.608,0.509,1.106,1.135,1.106h1.814
		v39.813c-0.463,0.143-0.799,0.561-0.799,1.059v12.209c0,0.61,0.506,1.104,1.131,1.104h12.5c0.625,0,1.13-0.493,1.13-1.104v-0.186
		h67.638v0.186c0,0.61,0.508,1.104,1.133,1.104h12.137c0.626,0,1.131-0.493,1.131-1.104V81.144c0-0.522-0.368-0.956-0.862-1.074
		V39.916h1.818c0.626,0,1.135-0.498,1.135-1.106V21.533C103.363,17.246,99.729,16.113,97.806,16.113L97.806,16.113z M101.096,37.705
		h-1.819c-0.624,0-1.13,0.493-1.13,1.104v42.334c0,0.521,0.368,0.953,0.863,1.073v9.672h-9.872v-0.184
		c0-0.609-0.509-1.104-1.133-1.104H18.104c-0.625,0-1.133,0.495-1.133,1.104v0.184H6.738V81.841
		c0.462-0.136,0.799-0.558,0.799-1.054V38.81c0-0.612-0.506-1.104-1.133-1.104H4.587V21.533c0-3.022,2.748-3.203,3.292-3.21h22.115
		c0.625,0,1.131-0.493,1.131-1.105V7.142c0-1.577,1.277-1.77,1.816-1.78h4.42c0.624,0,1.132-0.496,1.132-1.105V3.921h28.694v0.336
		c0,0.609,0.507,1.103,1.133,1.103h4.422c0.303,0,1.819,0.086,1.819,1.782v10.077c0,0.61,0.504,1.103,1.132,1.103h22.112
		c0.338,0,3.29,0.094,3.29,3.21V37.705z M101.096,37.705"/>
	<path fill="#1E140F" stroke="#1E140F" stroke-width="0.5138" stroke-miterlimit="10" d="M71.271,7.471H68.32
		c-0.626,0-1.133,0.495-1.133,1.105v0.334H38.494V8.576c0-0.611-0.508-1.105-1.132-1.105h-2.949c-0.625,0-1.131,0.495-1.131,1.105
		v8.641c0,0.612,0.506,1.105,1.131,1.105h36.859c0.623,0,1.13-0.493,1.13-1.105V8.576C72.403,7.965,71.895,7.471,71.271,7.471
		L71.271,7.471z M70.139,16.113H35.545V9.682h0.686v0.335c0,0.61,0.505,1.106,1.133,1.106h30.958c0.624,0,1.13-0.496,1.13-1.106
		V9.682h0.688v6.431H70.139z M70.139,16.113"/>
	<path fill="#1E140F" stroke="#1E140F" stroke-width="0.5138" stroke-miterlimit="10" d="M18.3,20.809h-5.765
		c-0.455-0.076-1.617-0.162-2.754,0.689c-1.523,1.135-2.297,3.435-2.297,6.833v5.906c0,0.61,0.506,1.107,1.134,1.107
		c0.624,0,1.13-0.497,1.13-1.107v-5.906c0-3.453,0.859-4.648,1.371-5.05c0.495-0.392,0.978-0.305,1.003-0.299
		c0.097,0.026,0.199,0.039,0.299,0.039H18.3c0.625,0,1.13-0.495,1.13-1.106C19.43,21.305,18.925,20.809,18.3,20.809L18.3,20.809z
		 M18.3,20.809"/>
	<path fill="#1E140F" stroke="#1E140F" stroke-width="0.5138" stroke-miterlimit="10" d="M11.384,39.048
		c-0.625,0-1.133,0.493-1.133,1.105v40.527c0,0.61,0.508,1.104,1.133,1.104c0.625,0,1.129-0.494,1.129-1.104V40.154
		C12.513,39.542,12.009,39.048,11.384,39.048L11.384,39.048z M11.384,39.048"/>
</g>
</svg>
