<?xml version="1.0" encoding="utf-8"?>
<!-- Generator: Adobe Illustrator 16.0.3, SVG Export Plug-In . SVG Version: 6.00 Build 0)  -->
<!DOCTYPE svg PUBLIC "-//W3C//DTD SVG 1.1//EN" "http://www.w3.org/Graphics/SVG/1.1/DTD/svg11.dtd">
<svg version="1.1" id="Layer_1" xmlns="http://www.w3.org/2000/svg" xmlns:xlink="http://www.w3.org/1999/xlink" x="0px" y="0px"
	 width="104.75px" height="94.1px" viewBox="0 0 104.75 94.1" enable-background="new 0 0 104.75 94.1" xml:space="preserve">
<g>
	<g>
		<path d="M96.708,5.356c-0.096-0.764-0.695-1.364-1.459-1.458c-6.878-0.85-13.975-0.109-20.526,2.143
			c-6.552,2.254-12.604,6.033-17.505,10.933l-11.181,11.18l-16.138,2.081c-0.369,0.049-0.709,0.216-0.972,0.479L13.367,46.274
			c-0.439,0.438-0.6,1.087-0.416,1.682c0.185,0.595,0.686,1.038,1.297,1.151l11.765,2.181l2.313,2.312l-4.922,2.664
			c-0.466,0.252-0.785,0.71-0.861,1.234c-0.077,0.524,0.101,1.053,0.474,1.428L41.68,77.589c0.316,0.316,0.745,0.491,1.186,0.491
			c0.08,0,0.161-0.005,0.241-0.017c0.525-0.076,0.982-0.396,1.234-0.862l2.665-4.922l2.313,2.313l2.179,11.765
			c0.114,0.613,0.558,1.112,1.152,1.298c0.162,0.049,0.33,0.073,0.497,0.073c0.439,0,0.867-0.171,1.188-0.492l15.559-15.561
			c0.263-0.262,0.431-0.604,0.478-0.971l2.082-16.139l11.181-11.18c4.897-4.899,8.679-10.952,10.932-17.504
			C96.817,19.33,97.558,12.232,96.708,5.356L96.708,5.356z M26.269,47.923l-8.273-1.532l12.9-12.901l11.258-1.452L26.269,47.923z
			 M42.462,73.627L26.978,58.144l3.822-2.069l13.73,13.731L42.462,73.627z M67.115,69.709l-12.901,12.9l-1.531-8.272l15.884-15.886
			L67.115,69.709z M81.259,41.016L50.873,71.401l-21.67-21.669l30.388-30.387c4.415-4.416,9.842-7.848,15.722-9.951
			c0.759,3.912,2.673,7.542,5.514,10.385c2.843,2.841,6.472,4.754,10.385,5.513C89.105,31.172,85.674,36.6,81.259,41.016
			L81.259,41.016z M92.221,22.069c-3.399-0.579-6.563-2.206-9.021-4.662c-2.458-2.46-4.084-5.622-4.663-9.021
			c4.861-1.312,9.971-1.759,14.984-1.3C93.979,12.098,93.531,17.207,92.221,22.069L92.221,22.069z M92.221,22.069"/>
	</g>
	<path d="M57.954,28.26c-3.969,3.968-3.969,10.425,0,14.393c1.983,1.985,4.589,2.977,7.196,2.977c2.604,0,5.212-0.993,7.197-2.977
		c3.967-3.968,3.967-10.425,0-14.393C68.378,24.291,61.922,24.291,57.954,28.26L57.954,28.26z M69.976,40.279
		c-2.661,2.66-6.99,2.66-9.649,0c-2.66-2.659-2.66-6.988,0-9.648c1.329-1.33,3.077-1.993,4.824-1.993s3.494,0.663,4.823,1.993
		C72.634,33.291,72.634,37.62,69.976,40.279L69.976,40.279z M69.976,40.279"/>
	<path d="M30.45,70.473c-0.656-0.656-1.718-0.656-2.373,0L13.685,84.865c-0.655,0.654-0.655,1.717,0,2.371
		c0.328,0.328,0.757,0.492,1.186,0.492s0.859-0.164,1.187-0.492L30.45,72.844C31.104,72.189,31.104,71.127,30.45,70.473
		L30.45,70.473z M30.45,70.473"/>
	<path d="M32.663,75.06l-6.484,6.483c-0.654,0.656-0.654,1.717,0,2.373c0.328,0.328,0.757,0.491,1.187,0.491
		c0.429,0,0.86-0.163,1.187-0.491l6.485-6.484c0.655-0.656,0.655-1.718,0-2.372C34.382,74.403,33.318,74.403,32.663,75.06
		L32.663,75.06z M32.663,75.06"/>
	<path d="M23.909,84.509c-0.702,0-1.343,0.454-1.579,1.111c-0.243,0.671-0.017,1.442,0.54,1.882c0.57,0.455,1.4,0.479,1.995,0.061
		c0.637-0.445,0.895-1.3,0.592-2.018C25.208,84.924,24.575,84.509,23.909,84.509L23.909,84.509z M23.909,84.509"/>
	<path d="M25.457,85.545C25.5,85.645,25.416,85.443,25.457,85.545L25.457,85.545z M25.457,85.545"/>
	<g>
		<path d="M19.165,88.559l-0.894,0.894c-0.656,0.655-0.656,1.717-0.001,2.373c0.326,0.327,0.757,0.49,1.188,0.49
			c0.43,0,0.858-0.163,1.186-0.49l0.894-0.892c0.654-0.656,0.654-1.719,0-2.374C20.882,87.904,19.819,87.903,19.165,88.559
			L19.165,88.559z M19.165,88.559"/>
		<path d="M17.955,73.793c-0.655-0.654-1.719-0.654-2.373,0l-6.484,6.486c-0.656,0.654-0.656,1.717,0,2.371
			c0.327,0.328,0.757,0.491,1.186,0.491c0.43,0,0.858-0.163,1.187-0.491l6.485-6.484C18.608,75.51,18.608,74.449,17.955,73.793
			L17.955,73.793z M17.955,73.793"/>
	</g>
	<path d="M20.632,73.15c0.681-0.172,1.191-0.765,1.263-1.463c0.07-0.683-0.306-1.354-0.917-1.66
		c-0.647-0.328-1.459-0.19-1.962,0.334c-0.536,0.561-0.614,1.438-0.189,2.088c-0.015-0.021-0.023-0.035,0.003,0.006
		c0.029,0.041,0.02,0.027,0.006,0.006C19.229,73.036,19.952,73.32,20.632,73.15L20.632,73.15z M20.632,73.15"/>
	<path d="M24.97,69.15l0.893-0.894c0.655-0.653,0.655-1.716,0-2.371c-0.655-0.657-1.718-0.657-2.373,0l-0.892,0.894
		c-0.655,0.654-0.655,1.717,0,2.371c0.328,0.328,0.757,0.492,1.187,0.492C24.213,69.643,24.643,69.479,24.97,69.15L24.97,69.15z
		 M24.97,69.15"/>
</g>
</svg>
