<?xml version="1.0" encoding="utf-8"?>
<!-- Generator: Adobe Illustrator 16.0.3, SVG Export Plug-In . SVG Version: 6.00 Build 0)  -->
<!DOCTYPE svg PUBLIC "-//W3C//DTD SVG 1.1//EN" "http://www.w3.org/Graphics/SVG/1.1/DTD/svg11.dtd">
<svg version="1.1" id="Layer_1" xmlns="http://www.w3.org/2000/svg" xmlns:xlink="http://www.w3.org/1999/xlink" x="0px" y="0px"
	 width="104.75px" height="94.1px" viewBox="0 0 104.75 94.1" enable-background="new 0 0 104.75 94.1" xml:space="preserve">
<g>
	<g>
		<path stroke="#D9D9D9" stroke-width="1.4326" stroke-miterlimit="10" d="M80.853,44.759c-0.619-0.377-1.382-0.435-2.052-0.154
			l-20.703,8.683c-0.67,0.281-1.165,0.866-1.331,1.572c-0.164,0.707,0.02,1.449,0.494,1.998c2.677,3.089,6.558,4.86,10.646,4.86
			c1.872,0,3.701-0.37,5.438-1.1c5.627-2.358,9.076-8.028,8.589-14.108C81.874,45.789,81.474,45.137,80.853,44.759L80.853,44.759z
			 M71.592,56.444c-1.179,0.494-2.419,0.745-3.686,0.745c-1.627,0-3.205-0.413-4.599-1.178l13.788-5.782
			C76.323,52.975,74.34,55.291,71.592,56.444L71.592,56.444z M71.592,56.444"/>
		<path stroke="#D9D9D9" stroke-width="1.4326" stroke-miterlimit="10" d="M100.077,28.739c-2.23-5.342-5.446-9.852-9.301-13.039
			c-0.676-0.56-1.612-0.678-2.407-0.304c-0.794,0.374-1.3,1.172-1.3,2.047v15.772c-1.887-1.292-4.289-2.567-6.821-2.969
			c-0.661-0.105-1.346-0.158-2.029-0.158c-7.337,0-14.174,5.893-19.664,10.628c-2.18,1.878-5.155,4.443-6.18,4.586
			c-1.024-0.143-4.002-2.708-6.179-4.586c-5.493-4.735-12.328-10.628-19.664-10.628c-0.685,0-1.369,0.052-2.03,0.158
			c-2.533,0.402-4.934,1.678-6.82,2.969V17.444c0-0.875-0.508-1.673-1.301-2.047c-0.793-0.374-1.73-0.256-2.407,0.304
			c-3.854,3.188-7.071,7.697-9.303,13.039c-2.268,5.433-3.466,11.634-3.466,17.934c0,6.301,1.198,12.501,3.466,17.933
			c2.231,5.344,5.449,9.854,9.303,13.042c0.677,0.559,1.614,0.676,2.407,0.303c0.792-0.374,1.301-1.171,1.301-2.048v-6.232
			c4.04,2.473,9.704,4.857,14.659,5.644c0.874,0.138,1.737,0.209,2.566,0.209c6.14,0,9.655-3.701,12.479-6.678
			c2.08-2.19,3.433-3.532,4.988-3.532c1.555,0,2.908,1.342,4.989,3.534c2.824,2.975,6.339,6.676,12.479,6.676
			c0.828,0,1.692-0.071,2.565-0.209c4.956-0.786,10.62-3.171,14.66-5.644v6.232c0,0.877,0.506,1.674,1.3,2.048
			c0.307,0.145,0.637,0.216,0.964,0.216c0.518,0,1.029-0.178,1.443-0.519c3.854-3.188,7.07-7.698,9.301-13.042
			c2.27-5.432,3.468-11.633,3.468-17.933C103.545,40.374,102.347,34.172,100.077,28.739L100.077,28.739z M91.598,70.315v-5.102
			c0-0.904-0.54-1.723-1.37-2.079c-0.832-0.357-1.795-0.187-2.452,0.437c-2.496,2.368-9.82,6.278-16.075,7.271
			c-0.641,0.101-1.265,0.152-1.856,0.152c-4.195,0-6.625-2.558-9.196-5.266c-2.308-2.43-4.694-4.943-8.272-4.943
			c-3.577,0-5.964,2.514-8.272,4.943c-2.571,2.708-5,5.266-9.197,5.266c-0.591,0-1.216-0.052-1.856-0.152
			c-6.254-0.993-13.579-4.903-16.076-7.271c-0.656-0.623-1.621-0.794-2.452-0.437c-0.831,0.356-1.369,1.175-1.369,2.081v5.1
			c-4.657-5.97-7.42-14.563-7.42-23.642c0-9.078,2.763-17.673,7.421-23.641v14.994c0,0.924,0.562,1.752,1.419,2.099
			c0.857,0.345,1.838,0.134,2.479-0.532c0.042-0.042,4.107-4.232,8.16-4.874c0.428-0.067,0.873-0.103,1.321-0.103
			c5.654,0,11.783,5.285,16.707,9.53c3.83,3.302,6.596,5.688,9.136,5.688c2.538,0,5.307-2.386,9.136-5.688
			c4.924-4.247,11.055-9.53,16.708-9.53c0.448,0,0.893,0.034,1.322,0.103c4.049,0.642,8.119,4.832,8.155,4.872
			c0.639,0.668,1.622,0.879,2.479,0.537c0.859-0.344,1.423-1.177,1.423-2.102V23.033c4.657,5.967,7.42,14.563,7.42,23.641
			C99.018,55.75,96.255,64.346,91.598,70.315L91.598,70.315z M91.598,70.315"/>
	</g>
	<path stroke="#D9D9D9" stroke-width="1.4326" stroke-miterlimit="10" d="M46.654,53.288L25.95,44.605
		c-0.669-0.281-1.433-0.224-2.053,0.154c-0.621,0.377-1.021,1.029-1.079,1.752c-0.487,6.08,2.963,11.75,8.588,14.108
		c1.738,0.729,3.567,1.1,5.438,1.1c4.088,0,7.969-1.771,10.646-4.86c0.475-0.549,0.659-1.291,0.493-1.998
		C47.818,54.154,47.323,53.569,46.654,53.288L46.654,53.288z M36.844,57.189c-1.266,0-2.506-0.251-3.686-0.745
		c-2.747-1.153-4.73-3.47-5.502-6.215l13.788,5.782C40.049,56.776,38.47,57.189,36.844,57.189L36.844,57.189z M36.844,57.189"/>
</g>
</svg>
