<?xml version="1.0" encoding="utf-8"?>
<!-- Generator: Adobe Illustrator 16.0.3, SVG Export Plug-In . SVG Version: 6.00 Build 0)  -->
<!DOCTYPE svg PUBLIC "-//W3C//DTD SVG 1.1//EN" "http://www.w3.org/Graphics/SVG/1.1/DTD/svg11.dtd">
<svg version="1.1" id="Layer_1" xmlns="http://www.w3.org/2000/svg" xmlns:xlink="http://www.w3.org/1999/xlink" x="0px" y="0px"
	 width="104.75px" height="94.1px" viewBox="0 0 104.75 94.1" enable-background="new 0 0 104.75 94.1" xml:space="preserve">
<g>
	<path d="M26.009,85.358c0,0.858-0.696,1.556-1.556,1.556h-9.448c-0.86,0-1.556-0.697-1.556-1.556c0-0.859,0.696-1.558,1.556-1.558
		h9.448C25.313,83.801,26.009,84.499,26.009,85.358L26.009,85.358z M6.465,34.664c0-0.014,0-0.025,0-0.037c0-0.013,0-0.025,0-0.037
		V18.717c0-0.012,0-0.024,0-0.036c0-0.014,0-0.024,0-0.036V4.929c0-2.066,1.681-3.749,3.748-3.749h23.68
		c2.066,0,3.748,1.682,3.748,3.749v85.423c0,2.065-1.681,3.747-3.748,3.747h-23.68c-2.067,0-3.748-1.682-3.748-3.747V66.551
		c0-0.011,0-0.024,0-0.037c0-0.012,0-0.022,0-0.036V50.606c0-0.012,0-0.024,0-0.036c0-0.013,0-0.024,0-0.036V34.664L6.465,34.664z
		 M9.577,90.351c0,0.347,0.292,0.639,0.636,0.639h23.68c0.345,0,0.637-0.292,0.637-0.639V68.07H9.577V90.351z M9.577,64.959h24.954
		V52.126H9.577V64.959z M9.577,49.014h24.954V36.181H9.577V49.014z M9.577,33.07h24.954V20.236H9.577V33.07z M9.577,17.125h24.954
		V4.929c0-0.346-0.292-0.638-0.637-0.638h-23.68c-0.345,0-0.636,0.292-0.636,0.638V17.125z M20.618,81.091
		c0.858,0,1.555-0.697,1.555-1.559c0-0.859-0.697-1.555-1.555-1.555h-5.613c-0.86,0-1.556,0.695-1.556,1.555
		c0,0.861,0.696,1.559,1.556,1.559H20.618L20.618,81.091z M44.998,85.114c-0.304,0.304-0.703,0.456-1.101,0.456
		c-0.398,0-0.797-0.152-1.101-0.456c-0.606-0.607-0.606-1.592,0-2.199l7.866-7.866l-7.866-7.866c-0.303-0.304-0.456-0.701-0.456-1.1
		s0.153-0.795,0.456-1.1c0.607-0.607,1.593-0.607,2.201,0l7.865,7.865l9.075-9.074L44.037,45.874c-0.443,0.04-0.9-0.109-1.24-0.448
		c-0.606-0.609-0.606-1.595,0-2.201l11.639-11.639c0.01-0.01,0.021-0.022,0.03-0.03c0.011-0.011,0.021-0.021,0.031-0.031
		l11.206-11.207c0.013-0.013,0.024-0.025,0.036-0.039c0.013-0.011,0.026-0.024,0.038-0.035l9.688-9.687
		c0.705-0.706,1.647-1.096,2.649-1.096c1.003,0,1.944,0.39,2.65,1.096L97.511,27.3c1.462,1.462,1.462,3.84,0,5.303L44.998,85.114z
		 M46.492,43.931l17.646,17.644l9.072-9.076L55.566,34.857L46.492,43.931z M57.766,32.655L75.412,50.3l9.073-9.074L66.84,23.581
		L57.766,32.655z M95.311,30.402c0.244-0.246,0.244-0.658,0-0.902L78.565,12.755c-0.16-0.158-0.35-0.182-0.45-0.182
		c-0.099,0-0.289,0.023-0.45,0.182l-8.624,8.626l17.645,17.644L95.311,30.402L95.311,30.402z M40.143,92.544
		c0-0.86,0.697-1.555,1.557-1.555h6.738v-3.09c0-0.859,0.697-1.555,1.557-1.555c0.858,0,1.555,0.695,1.555,1.555v3.09h12.833V71.956
		c0-0.859,0.696-1.558,1.555-1.558c0.859,0,1.556,0.698,1.556,1.558v19.033h12.833V66.034h-6.911c-0.859,0-1.556-0.697-1.556-1.555
		c0-0.86,0.696-1.557,1.556-1.557h8.426c0.029,0,0.058,0,0.084,0h13.71c2.067,0,3.748,1.683,3.748,3.747v23.683
		c0,2.065-1.682,3.747-3.748,3.747H41.7C40.84,94.1,40.143,93.403,40.143,92.544L40.143,92.544z M83.439,90.989h12.195
		c0.346,0,0.638-0.292,0.638-0.637V66.67c0-0.344-0.292-0.636-0.638-0.636H83.439V90.989z M83.439,66.034"/>
</g>
</svg>
