<?xml version="1.0" encoding="utf-8"?>
<!-- Generator: Adobe Illustrator 16.0.3, SVG Export Plug-In . SVG Version: 6.00 Build 0)  -->
<!DOCTYPE svg PUBLIC "-//W3C//DTD SVG 1.1//EN" "http://www.w3.org/Graphics/SVG/1.1/DTD/svg11.dtd">
<svg version="1.1" id="Layer_1" xmlns="http://www.w3.org/2000/svg" xmlns:xlink="http://www.w3.org/1999/xlink" x="0px" y="0px"
	 width="104.75px" height="94.1px" viewBox="0 0 104.75 94.1" enable-background="new 0 0 104.75 94.1" xml:space="preserve">
<g>
	<path d="M20.809,87.204h24.854c0.858,0,1.554-0.689,1.554-1.538c0-0.851-0.696-1.54-1.554-1.54H20.809
		c-0.857,0-1.553,0.689-1.553,1.54C19.256,86.515,19.952,87.204,20.809,87.204L20.809,87.204z M20.809,87.204"/>
	<path d="M20.809,68.735h24.854c0.858,0,1.554-0.689,1.554-1.539s-0.696-1.539-1.554-1.539H20.809c-0.857,0-1.553,0.689-1.553,1.539
		S19.952,68.735,20.809,68.735L20.809,68.735z M20.809,68.735"/>
	<path d="M51.878,59.501H14.596c-0.857,0-1.553,0.689-1.553,1.538v30.782c0,0.851,0.696,1.541,1.553,1.541h37.282
		c0.857,0,1.554-0.69,1.554-1.541V61.039C53.432,60.19,52.735,59.501,51.878,59.501L51.878,59.501z M50.324,90.283H16.149V62.577
		h34.174V90.283z M50.324,90.283"/>
	<path d="M20.809,81.048h24.854c0.858,0,1.554-0.688,1.554-1.539c0-0.85-0.696-1.539-1.554-1.539H20.809
		c-0.857,0-1.553,0.689-1.553,1.539C19.256,80.359,19.952,81.048,20.809,81.048L20.809,81.048z M20.809,81.048"/>
	<path d="M20.809,74.892h24.854c0.858,0,1.554-0.689,1.554-1.538c0-0.85-0.696-1.54-1.554-1.54H20.809
		c-0.857,0-1.553,0.69-1.553,1.54C19.256,74.202,19.952,74.892,20.809,74.892L20.809,74.892z M20.809,74.892"/>
	<path d="M73.626,56.423h-9.321c-0.856,0-1.552,0.689-1.552,1.539s0.695,1.539,1.552,1.539h7.769v9.232H70.52
		c-0.858,0-1.554,0.69-1.554,1.541c0,0.85,0.695,1.539,1.554,1.539h1.554v7.695c0,0.851,0.695,1.539,1.553,1.539
		s1.554-0.688,1.554-1.539V57.962C75.181,57.112,74.483,56.423,73.626,56.423L73.626,56.423z M73.626,56.423"/>
	<path d="M48.772,41.031c0.856,0,1.552-0.689,1.552-1.539V14.866c0-0.85-0.695-1.54-1.552-1.54H17.701
		c-0.857,0-1.552,0.689-1.552,1.54v24.626c0,0.849,0.695,1.539,1.552,1.539H48.772z M37.898,37.953h-9.322V22.562h9.322V37.953z
		 M47.217,37.953h-6.213V22.562h6.213V37.953z M19.256,16.405h27.961v3.079H19.256V16.405z M19.256,22.562h6.214v15.392h-6.214
		V22.562z M19.256,22.562"/>
	<path d="M98.482,44.109H93.82v-9.234h4.662c0.858,0,1.553-0.69,1.553-1.54c0-0.849-0.694-1.539-1.553-1.539H65.86V16.405h20.194
		c0.857,0,1.552-0.69,1.552-1.539V8.709c0-0.849-0.694-1.539-1.552-1.539h-21.75c-0.856,0-1.552,0.69-1.552,1.539
		c0,0.85,0.695,1.54,1.552,1.54H84.5v3.078H64.305c-0.856,0-1.552,0.689-1.552,1.54v30.782c0,0.849,0.695,1.539,1.552,1.539h32.623
		v37.222c-0.487-0.172-1.004-0.283-1.552-0.283c-0.271,0-0.537,0.023-0.8,0.069c-1.072-1.913-3.11-3.147-5.416-3.147
		c-2.303,0-4.344,1.234-5.415,3.147c-0.262-0.046-0.53-0.069-0.798-0.069c-2.569,0-4.662,2.072-4.662,4.619
		c0,2.544,2.093,4.617,4.662,4.617h12.429c2.567,0,4.659-2.073,4.659-4.617V45.648C100.035,44.798,99.341,44.109,98.482,44.109
		L98.482,44.109z M72.073,44.109H65.86v-9.234h6.213V44.109z M81.394,44.109h-6.213v-9.234h6.213V44.109z M90.714,44.109H84.5
		v-9.234h6.214V44.109z M95.376,90.283H82.947c-0.855,0-1.554-0.69-1.554-1.538c0-0.849,0.698-1.541,1.554-1.541
		c0.298,0,0.58,0.085,0.841,0.251c0.425,0.272,0.957,0.321,1.427,0.136c0.469-0.19,0.816-0.594,0.928-1.082
		c0.328-1.401,1.571-2.383,3.018-2.383c1.449,0,2.688,0.981,3.016,2.383c0.114,0.488,0.462,0.892,0.93,1.082
		c0.468,0.186,1.002,0.137,1.428-0.136c1.011-0.646,2.395,0.145,2.395,1.29C96.928,89.593,96.231,90.283,95.376,90.283
		L95.376,90.283z M95.376,90.283"/>
	<path d="M92.268,68.735c0.857,0,1.553-0.689,1.553-1.539v-9.234c0-0.85-0.695-1.539-1.553-1.539H79.84
		c-0.856,0-1.555,0.689-1.555,1.539v9.234c0,0.85,0.698,1.539,1.555,1.539H92.268z M81.394,59.501h9.32v6.156h-9.32V59.501z
		 M81.394,59.501"/>
	<path d="M73.626,84.126H59.645V2.552c0-0.848-0.696-1.539-1.554-1.539H8.381c-0.857,0-1.553,0.69-1.553,1.539v89.269
		c0,0.851,0.696,1.541,1.553,1.541c0.857,0,1.554-0.69,1.554-1.541V4.091h46.603v81.575c0,0.849,0.696,1.538,1.553,1.538h13.982
		v4.617c0,0.851,0.695,1.541,1.553,1.541s1.554-0.69,1.554-1.541v-6.155C75.181,84.815,74.483,84.126,73.626,84.126L73.626,84.126z
		 M73.626,84.126"/>
	<path d="M67.411,90.283h-9.32c-0.856,0-1.553,0.688-1.553,1.538s0.696,1.541,1.553,1.541h9.32c0.859,0,1.555-0.69,1.555-1.541
		C68.966,90.972,68.271,90.283,67.411,90.283L67.411,90.283z M67.411,90.283"/>
</g>
</svg>
