<?xml version="1.0" encoding="utf-8"?>
<!-- Generator: Adobe Illustrator 16.0.3, SVG Export Plug-In . SVG Version: 6.00 Build 0)  -->
<!DOCTYPE svg PUBLIC "-//W3C//DTD SVG 1.1//EN" "http://www.w3.org/Graphics/SVG/1.1/DTD/svg11.dtd">
<svg version="1.1" id="Layer_1" xmlns="http://www.w3.org/2000/svg" xmlns:xlink="http://www.w3.org/1999/xlink" x="0px" y="0px"
	 width="104.75px" height="94.1px" viewBox="0 0 104.75 94.1" enable-background="new 0 0 104.75 94.1" xml:space="preserve">
<g>
	<path d="M28.561,62.404c-1.473-1.162-3.321-1.804-5.201-1.804c-2.553,0-4.932,1.134-6.525,3.114
		c-1.394,1.733-2.024,3.901-1.776,6.105c0.249,2.207,1.35,4.186,3.102,5.567c1.473,1.166,3.319,1.807,5.199,1.807
		c2.557,0,4.936-1.137,6.527-3.118c1.393-1.73,2.023-3.896,1.775-6.099C31.413,65.771,30.312,63.791,28.561,62.404L28.561,62.404z
		 M26.921,71.69c-0.868,1.08-2.165,1.698-3.563,1.698c-1.041,0-2.022-0.339-2.838-0.986c-0.95-0.748-1.546-1.817-1.681-3.01
		c-0.133-1.187,0.208-2.357,0.959-3.291c0.867-1.078,2.167-1.696,3.561-1.696c1.043,0,2.026,0.341,2.841,0.986
		c0.949,0.75,1.544,1.819,1.679,3.011C28.013,69.59,27.673,70.757,26.921,71.69L26.921,71.69z M26.921,71.69"/>
	<path d="M62.026,42.915c1.254,0,2.467-0.275,3.609-0.819c2.018-0.967,3.533-2.655,4.266-4.757c0.73-2.088,0.6-4.334-0.369-6.324
		c-1.383-2.854-4.338-4.696-7.527-4.696c-1.258,0-2.475,0.275-3.615,0.821c-2.018,0.961-3.535,2.649-4.269,4.75
		c-0.73,2.091-0.602,4.339,0.369,6.33C55.878,41.072,58.835,42.915,62.026,42.915L62.026,42.915z M57.714,33.148
		c0.396-1.139,1.219-2.052,2.314-2.574c0.625-0.299,1.289-0.449,1.975-0.449c1.744,0,3.354,1.001,4.105,2.553
		c0.523,1.072,0.594,2.282,0.201,3.408c-0.396,1.137-1.221,2.052-2.314,2.576c-0.621,0.296-1.287,0.447-1.971,0.447
		c-1.742,0-3.359-1.004-4.111-2.556C57.39,35.481,57.319,34.272,57.714,33.148L57.714,33.148z M57.714,33.148"/>
	<path d="M41.315,29.467c0.611,0.138,1.238,0.208,1.862,0.208c3.917,0,7.264-2.65,8.14-6.447c0.491-2.152,0.113-4.369-1.065-6.242
		c-1.188-1.887-3.042-3.198-5.225-3.693c-0.615-0.14-1.244-0.21-1.87-0.21c-3.915,0-7.258,2.651-8.132,6.449
		c-0.495,2.151-0.119,4.369,1.058,6.242C37.273,27.663,39.132,28.975,41.315,29.467L41.315,29.467z M38.736,20.383
		c0.474-2.057,2.292-3.497,4.422-3.497c0.343,0,0.688,0.041,1.026,0.117c1.19,0.271,2.201,0.982,2.846,2.009
		c0.637,1.01,0.841,2.206,0.577,3.363c-0.466,2.025-2.33,3.494-4.43,3.494c-0.342,0-0.685-0.041-1.025-0.115
		c-1.19-0.268-2.2-0.98-2.846-2.006C38.671,22.737,38.469,21.542,38.736,20.383L38.736,20.383z M38.736,20.383"/>
	<g>
		<path d="M26.195,34.213c1.748-1.385,2.847-3.365,3.095-5.573c0.248-2.201-0.381-4.367-1.773-6.101
			c-1.597-1.979-3.977-3.114-6.532-3.114c-1.876,0-3.723,0.639-5.196,1.802c-1.75,1.382-2.85,3.358-3.099,5.565
			c-0.25,2.205,0.38,4.372,1.776,6.11c1.594,1.982,3.975,3.118,6.532,3.118C22.879,36.019,24.723,35.378,26.195,34.213
			L26.195,34.213z M17.433,30.517c-0.755-0.938-1.095-2.109-0.961-3.297c0.135-1.191,0.729-2.258,1.676-3.006
			c0.814-0.644,1.796-0.982,2.837-0.982c1.398,0,2.701,0.619,3.568,1.693c0.75,0.934,1.09,2.103,0.955,3.289
			c-0.133,1.194-0.729,2.266-1.677,3.016c-0.813,0.643-1.792,0.983-2.832,0.983C19.601,32.214,18.299,31.596,17.433,30.517
			L17.433,30.517z M17.433,30.517"/>
		<path d="M104.022,15.592c-0.33-0.333-0.916-0.727-1.842-0.727c-1.086,0-3.971,0-21.484,14.904
			c-0.352,0.299-0.709,0.602-1.064,0.908c-3.129-8.164-8.627-15.441-15.713-20.706c-8.123-6.036-17.797-9.227-27.975-9.231h-0.008
			c-6.866,0-15.215,2.401-21.787,6.265C6.093,11.74,1.657,18.075,1.659,24.838c0.003,8.167,4.609,11.583,8.31,14.327
			c3.017,2.24,5.4,4.006,5.401,7.878c0.002,3.876-2.381,5.641-5.396,7.878c-3.7,2.742-8.306,6.155-8.302,14.322
			c0.001,6.763,4.439,13.1,12.498,17.839c6.577,3.869,14.93,6.273,21.798,6.275h0.014c12.467,0,24.185-4.812,33-13.549
			c8.701-8.626,13.539-20.06,13.666-32.242c2.955-3.363,5.818-6.705,8.432-9.855c4.471-5.385,7.908-9.832,10.219-13.211
			C104.356,20.024,105.696,17.278,104.022,15.592L104.022,15.592z M66.302,77.105c-8.098,8.026-18.863,12.446-30.32,12.446h-0.013
			c-12.276-0.004-30.488-8.531-30.491-20.31c-0.003-6.25,3.284-8.686,6.763-11.266c3.251-2.41,6.937-5.144,6.937-10.934
			c-0.003-5.79-3.689-8.522-6.943-10.936c-3.479-2.582-6.768-5.019-6.768-11.27c-0.002-7.231,6.648-12.222,10.612-14.553
			c5.93-3.486,13.724-5.739,19.858-5.739h0.008c9.353,0.003,18.243,2.935,25.705,8.48c6.883,5.114,12.137,12.293,14.904,20.314
			C68.3,40.547,59.362,48.857,52.706,55.536c-11.056,1.431-12.563,8.798-13.664,14.211c-0.937,4.61-1.545,6.838-5.104,7.124
			c-0.876,0.069-1.59,0.73-1.727,1.6c-0.136,0.867,0.339,1.718,1.152,2.055c0.229,0.094,5.67,2.318,12.027,2.318h0.002
			c4.43,0,8.231-1.076,11.296-3.192c3.775-2.609,6.336-6.747,7.621-12.296c4.35-4.398,9.318-9.704,14.234-15.171
			C77.409,61.595,73.165,70.301,66.302,77.105L66.302,77.105z M60.485,66.996c-2.016,7.992-7.089,12.042-15.093,12.042H45.39
			c-2.111,0-4.131-0.289-5.832-0.646c2.031-2.07,2.664-5.188,3.214-7.883c1.045-5.144,2.035-10.007,10.124-11.163L60.485,66.996z
			 M86.767,36.942c-7.545,8.987-16.676,19.08-24.193,26.753l-1.162-1.173l-5.135-5.174c6.814-6.785,15.557-14.875,23.715-21.954
			c0.951-0.826,1.896-1.64,2.826-2.435c9.467-8.074,14.426-11.586,16.959-13.115C98.263,22.392,94.784,27.39,86.767,36.942
			L86.767,36.942z M86.767,36.942"/>
	</g>
</g>
</svg>
