<?xml version="1.0" encoding="utf-8"?>
<!-- Generator: Adobe Illustrator 16.0.0, SVG Export Plug-In . SVG Version: 6.00 Build 0)  -->
<!DOCTYPE svg PUBLIC "-//W3C//DTD SVG 1.1//EN" "http://www.w3.org/Graphics/SVG/1.1/DTD/svg11.dtd">
<svg version="1.1" id="Capa_1" xmlns="http://www.w3.org/2000/svg" xmlns:xlink="http://www.w3.org/1999/xlink" x="0px" y="0px"
	 width="210.5px" height="100px" viewBox="0 0 210.5 100" enable-background="new 0 0 210.5 100" xml:space="preserve">
<g>
	<g>
		<path fill="#FFFFFF" d="M7.146,52.254h13.599c2.379,0,4.229-0.46,5.549-1.395c1.322-0.928,1.979-2.215,1.979-3.861
			c0-1.579-0.569-2.889-1.703-3.927c-1.138-1.038-2.961-1.893-5.47-2.562l-6.071-1.688c-2.655-0.735-4.629-1.759-5.903-3.069
			c-1.275-1.308-1.914-2.958-1.914-4.949c0-2.357,0.854-4.168,2.563-5.436c1.707-1.264,4.151-1.897,7.334-1.897h11.553v2.531h-12.56
			c-2.012,0-3.543,0.421-4.595,1.266c-1.049,0.842-1.573,2.065-1.573,3.666c0,1.278,0.509,2.357,1.527,3.245
			c1.016,0.89,2.628,1.646,4.835,2.273l6.329,1.785c2.746,0.758,4.831,1.862,6.248,3.31c1.414,1.45,2.124,3.202,2.124,5.259
			c0,2.722-1.001,4.75-3.003,6.067c-2,1.319-5.078,1.978-9.23,1.978H7.145L7.146,52.254L7.146,52.254z"/>
		<path fill="#FFFFFF" d="M37.198,8.378h2.661v29.211c0,4.694,1.184,8.437,3.553,11.228c2.371,2.792,5.523,4.187,9.46,4.187
			c3.701,0,6.799-1.311,9.298-3.929c2.499-2.616,3.749-5.893,3.749-9.833c0-3.981-1.232-7.269-3.701-9.866
			c-2.465-2.596-5.58-3.894-9.346-3.894c-2.056,0-3.986,0.434-5.792,1.298c-1.809,0.866-3.486,2.184-5.045,3.96v-3.604
			c1.559-1.405,3.236-2.465,5.045-3.178c1.806-0.716,3.738-1.07,5.792-1.07c2.271,0,4.384,0.404,6.328,1.215
			c1.946,0.812,3.646,1.995,5.095,3.555c1.431,1.534,2.521,3.282,3.277,5.239c0.758,1.958,1.137,4.053,1.137,6.281
			c0,4.695-1.485,8.58-4.463,11.649c-2.978,3.073-6.726,4.612-11.243,4.612c-2.836,0-5.435-0.67-7.79-2.014
			c-2.358-1.34-4.305-3.258-5.844-5.744c-0.733-1.257-1.279-2.712-1.638-4.367c-0.356-1.654-0.536-3.64-0.536-5.956V8.378H37.198z"
			/>
		<path fill="#FFFFFF" d="M73.023,39.179c0-2.188,0.402-4.258,1.203-6.217c0.797-1.956,1.968-3.747,3.504-5.37
			c1.491-1.516,3.198-2.676,5.111-3.489c1.917-0.812,3.937-1.215,6.055-1.215s4.136,0.404,6.053,1.215
			c1.913,0.812,3.615,1.973,5.109,3.489c1.516,1.558,2.666,3.32,3.454,5.289c0.791,1.968,1.188,4.07,1.188,6.298
			c0,2.205-0.396,4.294-1.188,6.264c-0.786,1.968-1.938,3.734-3.454,5.289c-1.496,1.537-3.196,2.711-5.109,3.506
			c-1.917,0.799-3.937,1.203-6.053,1.203c-2.12,0-4.138-0.404-6.055-1.203c-1.912-0.795-3.619-1.969-5.111-3.506
			c-1.536-1.597-2.707-3.383-3.504-5.354C73.426,43.409,73.023,41.344,73.023,39.179z M75.882,39.112c0,3.85,1.26,7.107,3.778,9.769
			c2.521,2.662,5.596,3.991,9.232,3.991c3.61,0,6.673-1.336,9.184-4.005c2.511-2.674,3.769-5.924,3.769-9.755
			c0-3.872-1.258-7.133-3.769-9.784s-5.571-3.976-9.184-3.976c-3.639,0-6.716,1.33-9.232,3.991
			C77.142,32.006,75.882,35.262,75.882,39.112z"/>
		<path fill="#FFFFFF" d="M112.295,50.21c-0.172,0.196-0.306,0.391-0.389,0.585c-0.091,0.199-0.132,0.368-0.132,0.52
			c0,0.263,0.119,0.461,0.358,0.599c0.239,0.144,0.583,0.213,1.036,0.213h18.399v2.724h-18.823c-1.298,0-2.309-0.271-3.029-0.826
			c-0.729-0.549-1.094-1.312-1.094-2.287c0-0.454,0.112-0.91,0.326-1.364c0.219-0.452,0.661-1.115,1.332-1.979l17.104-20.736
			c0.131-0.175,0.227-0.332,0.29-0.473c0.067-0.14,0.099-0.264,0.099-0.373c0-0.238-0.108-0.431-0.326-0.584
			c-0.213-0.152-0.506-0.227-0.875-0.227h-16.354V23.47h15.965c1.539,0,2.676,0.243,3.408,0.731
			c0.732,0.484,1.104,1.216,1.104,2.188c0,0.52-0.115,1.04-0.341,1.558c-0.225,0.521-0.579,1.07-1.053,1.653L112.295,50.21z"/>
		<path fill="#FFFFFF" d="M164.054,54.852V40.766c0-4.715-1.17-8.461-3.518-11.242c-2.35-2.782-5.496-4.17-9.43-4.17
			c-3.699,0-6.793,1.311-9.278,3.927c-2.49,2.616-3.736,5.894-3.736,9.833c0,3.98,1.23,7.271,3.688,9.865
			c2.453,2.601,5.562,3.896,9.326,3.896c2.08,0,4.015-0.438,5.81-1.313c1.795-0.879,3.476-2.193,5.029-3.943v3.568
			c-1.558,1.43-3.238,2.498-5.046,3.197c-1.81,0.703-3.732,1.057-5.793,1.057c-2.271,0-4.379-0.414-6.326-1.221
			c-1.945-0.808-3.646-1.994-5.096-3.551c-1.449-1.56-2.554-3.315-3.312-5.277c-0.757-1.957-1.134-4.028-1.134-6.213
			c0-4.718,1.485-8.61,4.464-11.685c2.975-3.072,6.73-4.606,11.274-4.606c2.834,0,5.432,0.669,7.786,2.011
			c2.358,1.341,4.304,3.267,5.845,5.777c0.756,1.252,1.305,2.709,1.65,4.364c0.35,1.654,0.521,3.629,0.521,5.924V54.85
			L164.054,54.852L164.054,54.852z"/>
		<path fill="#FFFFFF" d="M203.679,54.852h-24.664c-2.099,0-3.521-0.232-4.268-0.711c-0.749-0.475-1.119-1.299-1.119-2.469
			c0-0.779,0.225-1.503,0.667-2.17c0.443-0.673,1.315-1.508,2.606-2.502l17.009-13.761c2.314-1.86,4.003-3.719,5.062-5.58
			c1.062-1.862,1.596-3.896,1.596-6.105c0-3.329-1.11-6.068-3.325-8.211c-2.22-2.142-5.036-3.211-8.457-3.211
			c-3.438,0-6.295,1.092-8.564,3.277c-2.271,2.185-3.407,4.921-3.407,8.212c0,3.46,1.105,6.209,3.33,8.243
			c2.215,2.033,5.344,3.16,9.391,3.375l-2.529,2.142c-4.092-0.627-7.283-2.12-9.588-4.479c-2.305-2.356-3.457-5.299-3.457-8.824
			c0-4.2,1.396-7.661,4.188-10.389c2.788-2.725,6.337-4.088,10.642-4.088c4.221,0,7.711,1.314,10.479,3.944
			c2.772,2.629,4.155,5.943,4.155,9.948c0,2.681-0.652,5.139-1.963,7.366c-1.311,2.228-3.543,4.62-6.701,7.171L177.85,49.858
			c-0.304,0.258-0.513,0.491-0.631,0.696c-0.117,0.206-0.181,0.418-0.181,0.633c0,0.348,0.133,0.611,0.389,0.797
			c0.261,0.183,0.615,0.271,1.072,0.271h25.185v2.596H203.679z"/>
	</g>
	<g>
		<path fill="#FFFFFF" d="M12.993,67.244c-0.056,0.998-0.401,1.817-1.039,2.455c-0.637,0.64-1.421,0.956-2.359,0.956
			c-0.453,0-0.889-0.084-1.299-0.256c-0.411-0.174-0.776-0.424-1.102-0.752c-0.328-0.338-0.579-0.719-0.752-1.146
			c-0.173-0.423-0.259-0.872-0.259-1.344s0.086-0.919,0.259-1.347c0.173-0.418,0.424-0.801,0.752-1.141
			c0.327-0.328,0.696-0.58,1.112-0.756c0.411-0.172,0.856-0.26,1.327-0.26c0.612,0,1.158,0.148,1.646,0.428
			c0.487,0.285,0.896,0.708,1.231,1.266L7.81,68.487L7.54,68.035l4.17-2.792c-0.258-0.348-0.561-0.612-0.916-0.797
			c-0.352-0.178-0.742-0.27-1.168-0.27c-0.792,0-1.461,0.285-2.008,0.861c-0.547,0.57-0.818,1.279-0.818,2.109
			c0,0.826,0.271,1.521,0.812,2.099c0.541,0.573,1.205,0.856,1.983,0.856c0.771,0,1.407-0.266,1.927-0.789
			c0.518-0.531,0.803-1.217,0.854-2.068L12.993,67.244L12.993,67.244z"/>
		<path fill="#FFFFFF" d="M13.916,69.971h2.922c0.509,0,0.909-0.103,1.189-0.305c0.282-0.197,0.427-0.477,0.427-0.831
			c0-0.336-0.121-0.616-0.368-0.837c-0.242-0.225-0.633-0.413-1.17-0.555l-1.309-0.363c-0.572-0.156-0.992-0.377-1.268-0.658
			c-0.277-0.283-0.416-0.636-0.416-1.062c0-0.508,0.188-0.897,0.554-1.17c0.367-0.27,0.895-0.407,1.574-0.407h2.485v0.542h-2.702
			c-0.432,0-0.759,0.094-0.986,0.275c-0.227,0.18-0.338,0.442-0.338,0.787c0,0.275,0.108,0.504,0.33,0.695
			c0.217,0.193,0.562,0.354,1.039,0.49l1.357,0.382c0.593,0.164,1.037,0.399,1.345,0.715c0.306,0.31,0.455,0.687,0.455,1.125
			c0,0.587-0.216,1.024-0.646,1.306c-0.432,0.285-1.09,0.431-1.98,0.431h-2.496L13.916,69.971L13.916,69.971z"/>
		<path fill="#FFFFFF" d="M24.681,64.313h-0.627c-0.957,0-1.736,0.263-2.332,0.793c-0.6,0.529-0.896,1.209-0.896,2.049
			c0,0.844,0.3,1.523,0.899,2.051c0.6,0.523,1.375,0.79,2.33,0.79h0.625v0.536h-0.506c-1.218,0-2.185-0.307-2.896-0.922
			c-0.711-0.604-1.065-1.426-1.065-2.454c0-0.558,0.13-1.082,0.387-1.56c0.257-0.479,0.617-0.879,1.089-1.201
			c0.312-0.213,0.661-0.371,1.045-0.469c0.381-0.092,0.864-0.145,1.443-0.145h0.507v0.531H24.681z"/>
		<path fill="#FFFFFF" d="M30.722,63.783h0.588v3.815c0,0.94-0.25,1.685-0.748,2.229c-0.498,0.551-1.162,0.827-1.992,0.827
			c-0.832,0-1.496-0.276-1.995-0.827c-0.497-0.545-0.748-1.289-0.748-2.229v-3.815h0.571v4.007c0,0.693,0.201,1.257,0.604,1.688
			c0.404,0.435,0.924,0.651,1.567,0.651c0.637,0,1.154-0.217,1.552-0.647c0.401-0.43,0.603-0.996,0.603-1.69L30.722,63.783
			L30.722,63.783z"/>
		<path fill="#FFFFFF" d="M39.407,67.244c-0.059,0.998-0.401,1.817-1.039,2.455c-0.64,0.64-1.422,0.956-2.357,0.956
			c-0.457,0-0.889-0.084-1.3-0.256c-0.413-0.174-0.78-0.424-1.1-0.752c-0.334-0.338-0.584-0.719-0.756-1.146
			c-0.171-0.423-0.259-0.872-0.259-1.344s0.088-0.919,0.259-1.347c0.172-0.418,0.422-0.801,0.756-1.141
			c0.326-0.328,0.692-0.58,1.105-0.756c0.413-0.172,0.855-0.26,1.332-0.26c0.609,0,1.159,0.148,1.645,0.428
			c0.485,0.285,0.896,0.708,1.229,1.266l-4.699,3.139l-0.271-0.452l4.172-2.792c-0.254-0.348-0.562-0.612-0.913-0.797
			c-0.354-0.178-0.745-0.27-1.172-0.27c-0.793,0-1.458,0.285-2.009,0.861c-0.545,0.57-0.817,1.279-0.817,2.109
			c0,0.826,0.271,1.521,0.812,2.099c0.543,0.573,1.203,0.856,1.984,0.856c0.768,0,1.41-0.266,1.926-0.789
			c0.519-0.531,0.804-1.217,0.857-2.068L39.407,67.244L39.407,67.244z"/>
		<path fill="#FFFFFF" d="M40.769,70.532v-9.994h0.582v9.994H40.769z"/>
		<path fill="#FFFFFF" d="M48.935,70.532V67.5c0-1.014-0.254-1.818-0.756-2.417c-0.504-0.599-1.181-0.897-2.025-0.897
			c-0.795,0-1.463,0.281-1.993,0.844c-0.537,0.562-0.808,1.27-0.808,2.115c0,0.856,0.269,1.56,0.793,2.117
			c0.529,0.562,1.196,0.838,2.008,0.838c0.443,0,0.861-0.092,1.248-0.281c0.387-0.19,0.744-0.471,1.082-0.846v0.764
			c-0.334,0.308-0.698,0.539-1.088,0.689c-0.387,0.149-0.801,0.227-1.24,0.227c-0.488,0-0.943-0.09-1.361-0.26
			c-0.416-0.178-0.783-0.436-1.095-0.765c-0.312-0.336-0.548-0.715-0.714-1.138c-0.161-0.418-0.241-0.863-0.241-1.336
			c0-1.01,0.319-1.846,0.959-2.51c0.638-0.662,1.448-0.992,2.425-0.992c0.607,0,1.167,0.148,1.673,0.439
			c0.506,0.284,0.927,0.698,1.259,1.237c0.158,0.271,0.274,0.583,0.352,0.942c0.076,0.352,0.111,0.779,0.111,1.271v2.986
			L48.935,70.532L48.935,70.532z"/>
		<path fill="#FFFFFF" d="M60.818,60.539h0.591v6.226c0,0.502-0.041,0.928-0.112,1.283c-0.075,0.36-0.192,0.67-0.358,0.939
			c-0.328,0.535-0.746,0.947-1.256,1.236c-0.506,0.287-1.062,0.432-1.673,0.432c-0.977,0-1.784-0.331-2.424-0.99
			c-0.643-0.658-0.958-1.498-0.958-2.507c0-0.472,0.082-0.919,0.244-1.339c0.164-0.424,0.396-0.801,0.71-1.135
			c0.318-0.336,0.685-0.59,1.101-0.762c0.418-0.176,0.867-0.268,1.355-0.268c0.436,0,0.844,0.08,1.232,0.232
			c0.394,0.154,0.759,0.383,1.1,0.687v0.774c-0.337-0.387-0.696-0.668-1.081-0.854c-0.389-0.184-0.805-0.277-1.25-0.277
			c-0.812,0-1.479,0.277-2.004,0.834c-0.527,0.557-0.793,1.266-0.793,2.121c0,0.85,0.271,1.553,0.801,2.114
			c0.537,0.562,1.201,0.843,1.996,0.843c0.849,0,1.521-0.301,2.024-0.895c0.505-0.598,0.755-1.403,0.755-2.416V60.539L60.818,60.539
			z"/>
		<path fill="#FFFFFF" d="M69.503,67.244c-0.055,0.998-0.402,1.817-1.039,2.455c-0.638,0.64-1.423,0.956-2.354,0.956
			c-0.457,0-0.893-0.084-1.305-0.256c-0.408-0.174-0.773-0.424-1.1-0.752c-0.33-0.338-0.581-0.719-0.752-1.146
			c-0.17-0.423-0.256-0.872-0.256-1.344s0.085-0.919,0.256-1.347c0.172-0.418,0.423-0.801,0.752-1.141
			c0.327-0.328,0.695-0.58,1.111-0.756c0.414-0.172,0.854-0.26,1.332-0.26c0.607,0,1.155,0.148,1.642,0.428
			c0.487,0.285,0.896,0.708,1.231,1.266l-4.701,3.139l-0.271-0.452l4.172-2.792c-0.259-0.348-0.561-0.612-0.912-0.797
			c-0.354-0.178-0.748-0.27-1.176-0.27c-0.789,0-1.46,0.285-2.006,0.861c-0.546,0.57-0.816,1.279-0.816,2.109
			c0,0.826,0.271,1.521,0.812,2.099c0.542,0.573,1.204,0.856,1.986,0.856c0.767,0,1.404-0.266,1.923-0.789
			c0.517-0.531,0.803-1.217,0.856-2.068L69.503,67.244L69.503,67.244z"/>
		<path fill="#FFFFFF" d="M80.409,60.539h0.587v6.226c0,0.502-0.039,0.928-0.114,1.283c-0.076,0.36-0.192,0.67-0.354,0.939
			c-0.332,0.535-0.752,0.947-1.257,1.236c-0.509,0.287-1.063,0.432-1.679,0.432c-0.976,0-1.782-0.331-2.422-0.99
			c-0.64-0.658-0.96-1.498-0.96-2.507c0-0.472,0.083-0.919,0.244-1.339c0.162-0.424,0.401-0.801,0.713-1.135
			c0.315-0.336,0.684-0.59,1.103-0.762c0.413-0.176,0.863-0.268,1.354-0.268c0.432,0,0.841,0.08,1.235,0.232
			c0.391,0.154,0.752,0.383,1.091,0.687v0.774c-0.332-0.387-0.694-0.668-1.08-0.854c-0.386-0.184-0.802-0.277-1.247-0.277
			c-0.812,0-1.479,0.277-2.006,0.834s-0.792,1.266-0.792,2.121c0,0.85,0.27,1.553,0.803,2.114c0.531,0.562,1.199,0.843,1.994,0.843
			c0.844,0,1.521-0.301,2.021-0.895c0.507-0.598,0.762-1.403,0.762-2.416L80.409,60.539L80.409,60.539z"/>
		<path fill="#FFFFFF" d="M82.625,61.885c0-0.115,0.039-0.213,0.118-0.291c0.078-0.08,0.181-0.121,0.297-0.121
			c0.119,0,0.22,0.041,0.302,0.121c0.087,0.077,0.128,0.174,0.128,0.291c0,0.116-0.041,0.217-0.128,0.299
			c-0.082,0.082-0.183,0.125-0.302,0.125c-0.113,0-0.21-0.041-0.29-0.125C82.664,62.102,82.625,62.001,82.625,61.885z
			 M82.751,70.532v-6.75h0.585v6.75H82.751z"/>
		<path fill="#FFFFFF" d="M85.095,60.539h0.567v6.278c0,1.01,0.257,1.811,0.767,2.412c0.512,0.6,1.188,0.899,2.032,0.899
			c0.796,0,1.463-0.282,1.998-0.843c0.539-0.561,0.806-1.264,0.806-2.114c0-0.856-0.264-1.563-0.793-2.122
			c-0.529-0.556-1.199-0.834-2.011-0.834c-0.44,0-0.854,0.094-1.245,0.278c-0.385,0.187-0.749,0.467-1.083,0.853v-0.773
			c0.334-0.305,0.698-0.532,1.083-0.686c0.391-0.154,0.805-0.232,1.245-0.232c0.49,0,0.942,0.091,1.361,0.267
			c0.419,0.173,0.782,0.427,1.093,0.763c0.307,0.326,0.542,0.707,0.706,1.121c0.162,0.424,0.242,0.875,0.242,1.352
			c0,1.01-0.32,1.849-0.957,2.507c-0.643,0.659-1.445,0.991-2.419,0.991c-0.609,0-1.168-0.145-1.674-0.434s-0.927-0.701-1.256-1.234
			c-0.156-0.27-0.273-0.58-0.354-0.94c-0.075-0.354-0.113-0.78-0.113-1.282v-6.226H85.095z"/>
		<path fill="#FFFFFF" d="M98.058,63.783h0.586v3.815c0,0.94-0.242,1.685-0.742,2.229c-0.5,0.551-1.162,0.827-1.996,0.827
			c-0.831,0-1.497-0.276-1.994-0.827c-0.498-0.545-0.746-1.289-0.746-2.229v-3.815h0.57v4.007c0,0.693,0.201,1.257,0.604,1.688
			c0.403,0.435,0.926,0.651,1.566,0.651c0.64,0,1.152-0.217,1.556-0.647c0.401-0.43,0.601-0.996,0.601-1.69v-4.008H98.058z"/>
		<path fill="#FFFFFF" d="M101.003,63.783v7.43c0,0.774-0.217,1.361-0.649,1.763c-0.438,0.396-1.074,0.594-1.924,0.594h-0.396
			v-0.541h0.396c0.695,0,1.207-0.15,1.524-0.45c0.316-0.298,0.478-0.771,0.478-1.421v-7.374H101.003L101.003,63.783z
			 M100.292,61.885c0-0.115,0.042-0.213,0.123-0.291c0.08-0.08,0.184-0.121,0.304-0.121c0.121,0,0.223,0.041,0.3,0.121
			c0.08,0.077,0.119,0.174,0.119,0.291c0,0.123-0.041,0.221-0.121,0.303c-0.079,0.086-0.184,0.121-0.298,0.121
			c-0.108,0-0.212-0.041-0.297-0.125C100.334,62.102,100.292,62.001,100.292,61.885z"/>
		<path fill="#FFFFFF" d="M102.392,67.157c0-0.467,0.088-0.913,0.258-1.332c0.172-0.418,0.424-0.807,0.754-1.155
			c0.32-0.325,0.688-0.577,1.1-0.749c0.411-0.176,0.849-0.268,1.301-0.268c0.456,0,0.893,0.092,1.305,0.268
			c0.409,0.172,0.776,0.422,1.096,0.749c0.328,0.333,0.576,0.716,0.744,1.136c0.173,0.424,0.255,0.875,0.255,1.352
			c0,0.479-0.082,0.925-0.255,1.348c-0.168,0.424-0.416,0.803-0.744,1.141c-0.317,0.33-0.688,0.58-1.096,0.752
			c-0.412,0.172-0.85,0.258-1.305,0.258c-0.452,0-0.891-0.086-1.301-0.258c-0.411-0.172-0.776-0.422-1.1-0.752
			c-0.33-0.344-0.582-0.732-0.754-1.156S102.392,67.621,102.392,67.157z M103.004,67.145c0,0.826,0.271,1.521,0.812,2.099
			c0.546,0.573,1.204,0.856,1.984,0.856c0.776,0,1.434-0.287,1.978-0.86c0.538-0.576,0.807-1.272,0.807-2.095
			c0-0.83-0.268-1.539-0.807-2.105c-0.543-0.564-1.199-0.854-1.978-0.854c-0.78,0-1.438,0.289-1.984,0.86
			C103.275,65.617,103.004,66.315,103.004,67.145z"/>
		<path fill="#FFFFFF" d="M119.215,63.783h0.587v3.815c0,0.891-0.207,1.59-0.626,2.106c-0.418,0.517-1.03,0.827-1.827,0.935v2.93
			h-0.588v-2.93c-0.811-0.123-1.419-0.437-1.832-0.941c-0.404-0.514-0.607-1.209-0.607-2.1v-3.816h0.568v4.007
			c0,0.692,0.203,1.257,0.604,1.687c0.405,0.436,0.927,0.652,1.565,0.652s1.156-0.217,1.557-0.648
			c0.398-0.43,0.602-0.994,0.602-1.689L119.215,63.783L119.215,63.783z"/>
		<path fill="#FFFFFF" d="M131.101,70.532V67.5c0-1.014-0.25-1.818-0.756-2.417c-0.503-0.599-1.184-0.897-2.023-0.897
			c-0.797,0-1.463,0.281-1.996,0.844c-0.532,0.562-0.801,1.27-0.801,2.115c0,0.856,0.262,1.56,0.791,2.117
			c0.526,0.562,1.193,0.838,2.006,0.838c0.441,0,0.857-0.092,1.246-0.281c0.388-0.19,0.748-0.471,1.076-0.846v0.764
			c-0.328,0.308-0.688,0.539-1.084,0.689c-0.386,0.149-0.797,0.227-1.238,0.227c-0.488,0-0.944-0.09-1.362-0.26
			c-0.417-0.178-0.778-0.436-1.095-0.765c-0.312-0.336-0.547-0.715-0.709-1.138c-0.164-0.418-0.243-0.863-0.243-1.336
			c0-1.01,0.315-1.846,0.957-2.51c0.641-0.662,1.448-0.992,2.425-0.992c0.607,0,1.167,0.148,1.675,0.439
			c0.501,0.284,0.924,0.698,1.256,1.237c0.163,0.271,0.279,0.583,0.354,0.942c0.068,0.352,0.111,0.779,0.111,1.271v2.986
			L131.101,70.532L131.101,70.532z"/>
		<path fill="#FFFFFF" d="M133.443,70.532v-6.75h0.571v1.316c0.271-0.445,0.604-0.785,1.009-1.006
			c0.395-0.229,0.845-0.332,1.352-0.332c0.048,0,0.103,0,0.16,0.002c0.062,0.004,0.143,0.01,0.236,0.026v0.563
			c-0.009,0-0.021,0-0.038,0c-0.225-0.013-0.366-0.028-0.442-0.028c-0.658,0-1.202,0.247-1.63,0.741s-0.646,1.121-0.646,1.89v3.577
			H133.443z"/>
		<path fill="#FFFFFF" d="M137.56,61.871h0.584v1.912h2.393v0.562h-2.393v3.771c0,0.649,0.164,1.125,0.481,1.421
			c0.312,0.3,0.812,0.445,1.504,0.445h0.404v0.551h-0.302c-0.893,0-1.562-0.194-2.01-0.592c-0.439-0.396-0.666-0.984-0.666-1.77
			v-6.3H137.56z"/>
		<path fill="#FFFFFF" d="M148.185,67.244c-0.057,0.998-0.401,1.817-1.037,2.455c-0.641,0.64-1.426,0.956-2.358,0.956
			c-0.454,0-0.892-0.084-1.298-0.256c-0.415-0.174-0.781-0.424-1.104-0.752c-0.328-0.338-0.578-0.719-0.753-1.146
			c-0.167-0.423-0.255-0.872-0.255-1.344s0.088-0.919,0.255-1.347c0.174-0.418,0.424-0.801,0.753-1.141
			c0.328-0.328,0.697-0.58,1.109-0.756c0.417-0.172,0.86-0.26,1.334-0.26c0.608,0,1.157,0.148,1.646,0.428
			c0.482,0.285,0.896,0.708,1.229,1.266l-4.698,3.139l-0.271-0.452l4.172-2.792c-0.252-0.348-0.562-0.612-0.914-0.797
			c-0.354-0.178-0.746-0.27-1.172-0.27c-0.786,0-1.457,0.285-2.009,0.861c-0.543,0.57-0.816,1.279-0.816,2.109
			c0,0.826,0.271,1.521,0.813,2.099c0.541,0.573,1.201,0.856,1.981,0.856c0.769,0,1.41-0.266,1.928-0.789
			c0.516-0.531,0.8-1.217,0.854-2.068L148.185,67.244L148.185,67.244z"/>
		<path fill="#FFFFFF" d="M149.105,69.971h2.927c0.506,0,0.907-0.103,1.186-0.305c0.286-0.197,0.432-0.477,0.432-0.831
			c0-0.336-0.121-0.616-0.369-0.837c-0.243-0.225-0.634-0.413-1.172-0.555l-1.309-0.363c-0.566-0.156-0.994-0.377-1.267-0.658
			c-0.278-0.283-0.415-0.636-0.415-1.062c0-0.508,0.184-0.897,0.553-1.17c0.371-0.27,0.896-0.407,1.574-0.407h2.485v0.542h-2.7
			c-0.436,0-0.762,0.094-0.985,0.275c-0.229,0.18-0.34,0.442-0.34,0.787c0,0.275,0.107,0.504,0.333,0.695
			c0.213,0.193,0.561,0.354,1.035,0.49l1.354,0.382c0.599,0.164,1.044,0.399,1.351,0.715c0.305,0.31,0.455,0.687,0.455,1.125
			c0,0.587-0.221,1.024-0.646,1.306c-0.431,0.285-1.091,0.431-1.98,0.431h-2.498v-0.56H149.105z"/>
		<path fill="#FFFFFF" d="M158.589,63.783h0.624l2.196,5.916c0.035,0.11,0.069,0.194,0.108,0.241
			c0.038,0.051,0.077,0.076,0.127,0.076s0.097-0.035,0.143-0.082c0.05-0.054,0.081-0.131,0.116-0.229l2.188-5.922h0.631
			l-2.314,6.198c-0.088,0.252-0.19,0.431-0.309,0.533c-0.117,0.104-0.262,0.156-0.438,0.156c-0.188,0-0.335-0.053-0.451-0.156
			c-0.113-0.104-0.217-0.281-0.305-0.533L158.589,63.783z"/>
		<path fill="#FFFFFF" d="M165.566,61.885c0-0.115,0.037-0.213,0.114-0.291c0.08-0.08,0.179-0.121,0.3-0.121
			c0.116,0,0.22,0.041,0.306,0.121c0.082,0.077,0.123,0.174,0.123,0.291c0,0.116-0.041,0.217-0.123,0.299
			c-0.086,0.082-0.188,0.125-0.306,0.125c-0.113,0-0.214-0.041-0.293-0.125C165.607,62.102,165.566,62.001,165.566,61.885z
			 M165.689,70.532v-6.75h0.589v6.75H165.689z"/>
		<path fill="#FFFFFF" d="M167.696,69.971h2.92c0.512,0,0.91-0.103,1.19-0.305c0.285-0.197,0.427-0.477,0.427-0.831
			c0-0.336-0.121-0.616-0.365-0.837c-0.248-0.225-0.637-0.413-1.178-0.555l-1.302-0.363c-0.576-0.156-0.996-0.377-1.271-0.658
			c-0.271-0.283-0.406-0.636-0.406-1.062c0-0.508,0.182-0.897,0.552-1.17c0.363-0.27,0.893-0.407,1.573-0.407h2.479v0.542h-2.697
			c-0.428,0-0.758,0.094-0.986,0.275c-0.229,0.18-0.34,0.442-0.34,0.787c0,0.275,0.111,0.504,0.33,0.695
			c0.22,0.193,0.568,0.354,1.039,0.49l1.363,0.382c0.586,0.164,1.032,0.399,1.338,0.715c0.304,0.31,0.457,0.687,0.457,1.125
			c0,0.587-0.215,1.024-0.646,1.306c-0.434,0.285-1.09,0.431-1.988,0.431h-2.488L167.696,69.971L167.696,69.971z"/>
		<path fill="#FFFFFF" d="M179.045,63.783h0.589v3.815c0,0.94-0.251,1.685-0.748,2.229c-0.496,0.551-1.164,0.827-1.994,0.827
			c-0.832,0-1.496-0.276-1.99-0.827c-0.506-0.545-0.748-1.289-0.748-2.229v-3.815h0.572v4.007c0,0.693,0.198,1.257,0.604,1.688
			c0.399,0.435,0.924,0.651,1.562,0.651c0.641,0,1.157-0.217,1.556-0.647c0.399-0.43,0.601-0.996,0.601-1.69L179.045,63.783
			L179.045,63.783z"/>
		<path fill="#FFFFFF" d="M187.122,70.532V67.5c0-1.014-0.254-1.818-0.762-2.417c-0.502-0.599-1.18-0.897-2.023-0.897
			c-0.792,0-1.459,0.281-1.992,0.844c-0.538,0.562-0.806,1.27-0.806,2.115c0,0.856,0.263,1.56,0.793,2.117
			c0.526,0.562,1.198,0.838,2.005,0.838c0.446,0,0.861-0.092,1.246-0.281c0.386-0.19,0.751-0.471,1.082-0.846v0.764
			c-0.331,0.308-0.696,0.539-1.085,0.689c-0.39,0.149-0.804,0.227-1.243,0.227c-0.49,0-0.94-0.09-1.36-0.26
			c-0.413-0.178-0.78-0.436-1.093-0.765c-0.311-0.336-0.553-0.715-0.711-1.138c-0.166-0.418-0.242-0.863-0.242-1.336
			c0-1.01,0.316-1.846,0.953-2.51c0.643-0.662,1.449-0.992,2.424-0.992c0.612,0,1.168,0.148,1.675,0.439
			c0.51,0.284,0.93,0.698,1.26,1.237c0.156,0.271,0.276,0.583,0.354,0.942c0.073,0.352,0.109,0.779,0.109,1.271v2.986
			L187.122,70.532L187.122,70.532z"/>
		<path fill="#FFFFFF" d="M189.459,70.532v-9.994h0.588v9.994H189.459z"/>
		<path fill="#FFFFFF" d="M198.241,67.244c-0.054,0.998-0.396,1.817-1.04,2.455c-0.635,0.64-1.419,0.956-2.354,0.956
			c-0.451,0-0.887-0.084-1.299-0.256c-0.415-0.174-0.781-0.424-1.103-0.752c-0.329-0.338-0.58-0.719-0.754-1.146
			c-0.173-0.423-0.259-0.872-0.259-1.344s0.086-0.919,0.259-1.347c0.174-0.418,0.424-0.801,0.754-1.141
			c0.328-0.328,0.694-0.58,1.105-0.756c0.416-0.172,0.859-0.26,1.335-0.26c0.61,0,1.155,0.148,1.646,0.428
			c0.485,0.285,0.896,0.708,1.229,1.266l-4.699,3.139l-0.271-0.452l4.167-2.792c-0.255-0.348-0.559-0.612-0.913-0.797
			c-0.353-0.178-0.738-0.27-1.172-0.27c-0.787,0-1.457,0.285-2,0.861c-0.552,0.57-0.818,1.279-0.818,2.109
			c0,0.826,0.265,1.521,0.808,2.099c0.543,0.573,1.209,0.856,1.985,0.856c0.771,0,1.409-0.266,1.924-0.789
			c0.519-0.531,0.808-1.217,0.86-2.068L198.241,67.244L198.241,67.244z"/>
		<path fill="#FFFFFF" d="M199.165,69.971h2.922c0.514,0,0.908-0.103,1.193-0.305c0.282-0.197,0.426-0.477,0.426-0.831
			c0-0.336-0.127-0.616-0.369-0.837c-0.244-0.225-0.635-0.413-1.176-0.555l-1.306-0.363c-0.569-0.156-0.991-0.377-1.266-0.658
			c-0.277-0.283-0.414-0.636-0.414-1.062c0-0.508,0.182-0.897,0.548-1.17c0.365-0.27,0.896-0.407,1.58-0.407h2.479v0.542h-2.694
			c-0.438,0-0.765,0.094-0.985,0.275c-0.229,0.18-0.344,0.442-0.344,0.787c0,0.275,0.109,0.504,0.329,0.695
			c0.215,0.193,0.562,0.354,1.04,0.49l1.355,0.382c0.596,0.164,1.041,0.399,1.346,0.715c0.305,0.31,0.455,0.687,0.455,1.125
			c0,0.587-0.217,1.024-0.644,1.306c-0.436,0.285-1.098,0.431-1.985,0.431h-2.494L199.165,69.971L199.165,69.971z"/>
	</g>
	<g>
		<path fill="#FFFFFF" d="M56.308,80.705h0.528v5.634c0,0.449-0.032,0.834-0.101,1.156c-0.066,0.32-0.178,0.605-0.323,0.848
			c-0.298,0.483-0.677,0.855-1.132,1.116c-0.461,0.257-0.965,0.39-1.518,0.39c-0.883,0-1.611-0.295-2.189-0.895
			s-0.868-1.352-0.868-2.264c0-0.426,0.073-0.834,0.224-1.217c0.146-0.377,0.361-0.722,0.643-1.021
			c0.286-0.303,0.618-0.534,0.993-0.689c0.377-0.164,0.786-0.238,1.229-0.238c0.39,0,0.762,0.068,1.113,0.207
			c0.354,0.142,0.685,0.348,0.991,0.621v0.699c-0.307-0.349-0.631-0.603-0.979-0.771c-0.346-0.168-0.723-0.252-1.125-0.252
			c-0.731,0-1.336,0.252-1.812,0.759c-0.479,0.5-0.716,1.14-0.716,1.919c0,0.762,0.24,1.398,0.728,1.906
			c0.482,0.511,1.084,0.765,1.803,0.765c0.763,0,1.375-0.271,1.828-0.812c0.457-0.537,0.688-1.266,0.688-2.186v-5.675H56.308
			L56.308,80.705z"/>
		<path fill="#FFFFFF" d="M64.161,86.766c-0.052,0.905-0.364,1.646-0.943,2.217c-0.574,0.576-1.283,0.865-2.129,0.865
			c-0.411,0-0.805-0.074-1.177-0.229c-0.372-0.157-0.701-0.385-0.991-0.684c-0.302-0.303-0.525-0.646-0.682-1.028
			c-0.155-0.386-0.232-0.793-0.232-1.216c0-0.426,0.077-0.834,0.232-1.217c0.155-0.386,0.38-0.725,0.682-1.035
			c0.293-0.297,0.626-0.525,1.001-0.682c0.374-0.158,0.776-0.232,1.204-0.232c0.549,0,1.044,0.127,1.485,0.382
			c0.438,0.263,0.812,0.64,1.11,1.146l-4.248,2.84l-0.248-0.414l3.772-2.521c-0.231-0.317-0.508-0.556-0.829-0.722
			c-0.316-0.16-0.672-0.247-1.061-0.247c-0.717,0-1.317,0.263-1.812,0.782c-0.494,0.516-0.742,1.152-0.742,1.904
			s0.248,1.385,0.735,1.896c0.486,0.521,1.086,0.777,1.794,0.777c0.691,0,1.271-0.238,1.739-0.715
			c0.466-0.477,0.726-1.098,0.774-1.869H64.161L64.161,86.766z"/>
		<path fill="#FFFFFF" d="M65.388,89.735v-9.03h0.529v9.03H65.388z"/>
		<path fill="#FFFFFF" d="M73.327,86.766c-0.049,0.905-0.363,1.646-0.939,2.217c-0.576,0.576-1.285,0.865-2.13,0.865
			c-0.415,0-0.804-0.074-1.175-0.229c-0.372-0.157-0.703-0.385-0.993-0.684c-0.3-0.303-0.528-0.646-0.681-1.028
			c-0.155-0.386-0.237-0.793-0.237-1.216c0-0.426,0.082-0.834,0.237-1.217c0.15-0.386,0.38-0.725,0.681-1.035
			c0.293-0.297,0.626-0.525,1.003-0.682c0.374-0.158,0.774-0.232,1.204-0.232c0.55,0,1.044,0.127,1.485,0.382
			c0.437,0.263,0.807,0.64,1.109,1.146l-4.25,2.84l-0.245-0.414l3.771-2.521c-0.229-0.317-0.507-0.556-0.826-0.722
			c-0.319-0.16-0.672-0.247-1.059-0.247c-0.717,0-1.318,0.263-1.812,0.782c-0.496,0.516-0.741,1.152-0.741,1.904
			s0.243,1.385,0.734,1.896c0.488,0.521,1.087,0.777,1.793,0.777c0.694,0,1.276-0.238,1.742-0.715
			c0.465-0.477,0.726-1.098,0.772-1.869H73.327L73.327,86.766z"/>
		<path fill="#FFFFFF" d="M80.265,89.49c0,0.964-0.27,1.724-0.804,2.286c-0.539,0.561-1.264,0.841-2.18,0.841
			c-0.264,0-0.544-0.026-0.851-0.085c-0.307-0.057-0.639-0.146-0.995-0.266l0.18-0.531c0.37,0.123,0.69,0.214,0.964,0.273
			c0.27,0.051,0.514,0.082,0.727,0.082c0.752,0,1.348-0.232,1.779-0.695c0.428-0.461,0.65-1.097,0.65-1.903V87
			c0-0.917-0.23-1.644-0.688-2.183c-0.454-0.541-1.063-0.809-1.832-0.809c-0.718,0-1.319,0.252-1.805,0.762
			c-0.481,0.504-0.728,1.145-0.728,1.906c0,0.778,0.238,1.414,0.721,1.92c0.478,0.504,1.079,0.754,1.812,0.754
			c0.404,0,0.779-0.082,1.13-0.254c0.35-0.166,0.675-0.426,0.979-0.766v0.691c-0.304,0.281-0.629,0.488-0.981,0.629
			c-0.349,0.131-0.727,0.197-1.125,0.197c-0.44,0-0.85-0.074-1.228-0.236c-0.379-0.156-0.711-0.385-0.991-0.688
			c-0.281-0.302-0.498-0.644-0.645-1.024c-0.146-0.381-0.223-0.785-0.223-1.209c0-0.916,0.29-1.676,0.868-2.271
			c0.576-0.595,1.312-0.896,2.188-0.896c0.556,0,1.06,0.131,1.518,0.395c0.458,0.258,0.836,0.631,1.133,1.123
			c0.15,0.242,0.254,0.523,0.323,0.846c0.067,0.321,0.104,0.707,0.104,1.152L80.265,89.49L80.265,89.49z"/>
		<path fill="#FFFFFF" d="M87.028,89.735v-2.738c0-0.917-0.229-1.643-0.684-2.182c-0.457-0.543-1.066-0.81-1.832-0.81
			c-0.72,0-1.323,0.251-1.804,0.761c-0.483,0.504-0.726,1.146-0.726,1.907c0,0.778,0.234,1.414,0.714,1.919
			c0.479,0.506,1.083,0.756,1.813,0.756c0.401,0,0.776-0.082,1.127-0.254c0.35-0.168,0.672-0.427,0.979-0.767v0.69
			c-0.309,0.283-0.631,0.488-0.98,0.629c-0.354,0.131-0.724,0.199-1.125,0.199c-0.443,0-0.853-0.076-1.23-0.236
			c-0.375-0.157-0.708-0.385-0.989-0.689c-0.28-0.302-0.498-0.643-0.646-1.025c-0.146-0.379-0.222-0.783-0.222-1.207
			c0-0.916,0.292-1.678,0.868-2.271c0.58-0.596,1.311-0.895,2.192-0.895c0.549,0,1.054,0.131,1.512,0.394
			c0.461,0.258,0.837,0.631,1.134,1.123c0.147,0.241,0.256,0.522,0.324,0.845c0.064,0.322,0.1,0.709,0.1,1.153v2.696L87.028,89.735
			L87.028,89.735z"/>
		<path fill="#FFFFFF" d="M92.957,84.12h-0.565c-0.863,0-1.566,0.234-2.107,0.711c-0.539,0.482-0.812,1.096-0.812,1.859
			c0,0.756,0.273,1.373,0.813,1.848c0.544,0.479,1.243,0.721,2.106,0.721h0.564v0.477h-0.461c-1.099,0-1.972-0.272-2.615-0.825
			c-0.643-0.552-0.965-1.288-0.965-2.22c0-0.508,0.116-0.979,0.348-1.41c0.23-0.434,0.561-0.797,0.981-1.084
			c0.288-0.194,0.603-0.336,0.947-0.426c0.346-0.088,0.778-0.127,1.304-0.127h0.461L92.957,84.12L92.957,84.12z"/>
		<path fill="#FFFFFF" d="M93.964,81.924c0-0.105,0.034-0.195,0.107-0.266c0.071-0.072,0.16-0.109,0.266-0.109
			c0.107,0,0.2,0.037,0.278,0.109c0.072,0.07,0.111,0.16,0.111,0.266c0,0.104-0.038,0.194-0.111,0.268
			c-0.078,0.076-0.171,0.113-0.278,0.113c-0.104,0-0.188-0.037-0.262-0.113C94.002,82.119,93.964,82.028,93.964,81.924z
			 M94.08,89.735v-6.094h0.53v6.094H94.08z"/>
		<path fill="#FFFFFF" d="M95.865,86.69c0-0.424,0.076-0.828,0.233-1.209c0.153-0.377,0.382-0.729,0.683-1.043
			c0.287-0.297,0.619-0.521,0.99-0.676c0.368-0.164,0.767-0.238,1.18-0.238c0.408,0,0.8,0.076,1.175,0.238
			c0.37,0.155,0.703,0.379,0.991,0.676c0.295,0.303,0.521,0.646,0.674,1.029c0.152,0.381,0.229,0.793,0.229,1.223
			c0,0.431-0.074,0.834-0.229,1.221c-0.154,0.382-0.379,0.723-0.674,1.025c-0.288,0.299-0.621,0.526-0.991,0.684
			c-0.375,0.154-0.767,0.229-1.175,0.229c-0.413,0-0.812-0.074-1.18-0.229c-0.371-0.157-0.703-0.385-0.99-0.684
			c-0.301-0.311-0.527-0.658-0.683-1.041C95.941,87.508,95.865,87.114,95.865,86.69z M96.42,86.674c0,0.752,0.244,1.385,0.732,1.896
			c0.491,0.521,1.089,0.777,1.797,0.777c0.698,0,1.295-0.256,1.78-0.777c0.489-0.52,0.731-1.151,0.731-1.896
			c0-0.752-0.244-1.38-0.731-1.9c-0.485-0.512-1.082-0.768-1.78-0.768c-0.708,0-1.306,0.254-1.797,0.773
			C96.665,85.299,96.42,85.926,96.42,86.674z"/>
		<path fill="#FFFFFF" d="M103.714,89.735h-0.516v-3.449c0-0.846,0.222-1.516,0.674-2.014c0.449-0.5,1.051-0.748,1.805-0.748
			c0.75,0,1.354,0.248,1.801,0.748c0.453,0.498,0.68,1.168,0.68,2.014v3.449h-0.521v-3.613c0-0.629-0.183-1.139-0.542-1.532
			c-0.365-0.389-0.837-0.583-1.416-0.583c-0.582,0-1.054,0.195-1.416,0.583c-0.365,0.394-0.547,0.902-0.547,1.532L103.714,89.735
			L103.714,89.735z"/>
		<path fill="#FFFFFF" d="M118.9,89.49c0,0.964-0.271,1.724-0.802,2.286c-0.536,0.561-1.268,0.841-2.181,0.841
			c-0.264,0-0.546-0.026-0.85-0.085c-0.31-0.057-0.642-0.146-1-0.266l0.182-0.531c0.37,0.123,0.691,0.214,0.963,0.273
			c0.271,0.051,0.511,0.082,0.727,0.082c0.757,0,1.351-0.232,1.777-0.695c0.437-0.461,0.652-1.097,0.652-1.903V87
			c0-0.917-0.229-1.644-0.685-2.183c-0.459-0.541-1.064-0.809-1.832-0.809c-0.721,0-1.318,0.252-1.806,0.762
			c-0.483,0.504-0.725,1.145-0.725,1.906c0,0.778,0.233,1.414,0.714,1.92c0.479,0.504,1.082,0.754,1.812,0.754
			c0.405,0,0.778-0.082,1.127-0.254c0.354-0.166,0.674-0.426,0.979-0.766v0.691c-0.305,0.281-0.629,0.488-0.981,0.629
			c-0.35,0.131-0.725,0.197-1.123,0.197c-0.442,0-0.854-0.074-1.229-0.236c-0.377-0.156-0.71-0.385-0.991-0.688
			c-0.28-0.302-0.493-0.644-0.643-1.024c-0.146-0.381-0.224-0.785-0.224-1.209c0-0.916,0.287-1.676,0.867-2.271
			c0.577-0.595,1.312-0.896,2.193-0.896c0.546,0,1.051,0.131,1.515,0.395c0.457,0.258,0.837,0.631,1.13,1.123
			c0.149,0.242,0.258,0.523,0.325,0.846c0.062,0.321,0.101,0.707,0.101,1.152v2.449L118.9,89.49L118.9,89.49z"/>
		<path fill="#FFFFFF" d="M120.493,89.735v-6.094h0.514v1.189c0.242-0.404,0.545-0.708,0.906-0.913
			c0.36-0.203,0.77-0.303,1.223-0.303c0.049,0,0.093,0,0.148,0.007c0.056,0,0.126,0.008,0.213,0.023v0.508c-0.007,0-0.021,0-0.034,0
			c-0.202-0.016-0.331-0.021-0.401-0.021c-0.593,0-1.09,0.221-1.475,0.668c-0.388,0.442-0.58,1.016-0.58,1.706v3.229H120.493z"/>
		<path fill="#FFFFFF" d="M129.461,89.735v-2.738c0-0.917-0.226-1.643-0.685-2.182c-0.459-0.543-1.065-0.81-1.832-0.81
			c-0.721,0-1.321,0.251-1.805,0.761c-0.481,0.504-0.728,1.146-0.728,1.907c0,0.778,0.241,1.414,0.718,1.919
			c0.476,0.506,1.081,0.756,1.812,0.756c0.402,0,0.779-0.082,1.132-0.254c0.348-0.168,0.672-0.427,0.974-0.767v0.69
			c-0.302,0.283-0.627,0.488-0.98,0.629c-0.348,0.131-0.727,0.199-1.122,0.199c-0.444,0-0.854-0.076-1.229-0.236
			c-0.381-0.157-0.71-0.385-0.988-0.689c-0.285-0.302-0.5-0.643-0.646-1.025c-0.146-0.379-0.22-0.783-0.22-1.207
			c0-0.916,0.289-1.678,0.865-2.271c0.578-0.596,1.308-0.895,2.19-0.895c0.552,0,1.054,0.131,1.515,0.394
			c0.455,0.258,0.836,0.631,1.137,1.123c0.146,0.241,0.254,0.522,0.314,0.845c0.07,0.322,0.105,0.709,0.105,1.153v2.696
			L129.461,89.735L129.461,89.735z"/>
		<path fill="#FFFFFF" d="M132.011,89.735h-0.518v-3.449c0-0.846,0.225-1.516,0.673-2.014c0.449-0.5,1.047-0.748,1.804-0.748
			c0.752,0,1.352,0.248,1.807,0.748c0.445,0.498,0.672,1.168,0.672,2.014v3.449h-0.516v-3.613c0-0.629-0.187-1.139-0.55-1.532
			c-0.36-0.389-0.837-0.583-1.413-0.583c-0.584,0-1.056,0.195-1.416,0.583c-0.367,0.394-0.545,0.902-0.545,1.532v3.613H132.011z"/>
		<path fill="#FFFFFF" d="M143.215,89.735v-2.738c0-0.917-0.229-1.643-0.686-2.182c-0.455-0.543-1.064-0.81-1.832-0.81
			c-0.721,0-1.318,0.251-1.805,0.761c-0.484,0.504-0.726,1.146-0.726,1.907c0,0.778,0.232,1.414,0.719,1.919
			c0.475,0.506,1.078,0.756,1.812,0.756c0.405,0,0.782-0.082,1.131-0.254c0.346-0.168,0.674-0.427,0.976-0.767v0.69
			c-0.302,0.283-0.63,0.488-0.976,0.629c-0.356,0.131-0.729,0.199-1.131,0.199c-0.441,0-0.852-0.076-1.231-0.236
			c-0.377-0.157-0.703-0.385-0.984-0.689c-0.283-0.302-0.496-0.643-0.646-1.025c-0.146-0.379-0.215-0.783-0.215-1.207
			c0-0.916,0.284-1.678,0.864-2.271c0.569-0.596,1.308-0.895,2.188-0.895c0.547,0,1.056,0.131,1.515,0.394
			c0.457,0.258,0.834,0.631,1.136,1.123c0.146,0.241,0.256,0.522,0.318,0.845c0.065,0.322,0.104,0.709,0.104,1.153v2.696
			L143.215,89.735L143.215,89.735z"/>
		<path fill="#FFFFFF" d="M150.511,80.705h0.528v5.634c0,0.449-0.03,0.834-0.099,1.156c-0.066,0.32-0.18,0.605-0.32,0.848
			c-0.301,0.483-0.678,0.855-1.143,1.116c-0.451,0.257-0.959,0.39-1.508,0.39c-0.89,0-1.615-0.295-2.191-0.895
			s-0.87-1.352-0.87-2.264c0-0.426,0.077-0.834,0.222-1.217c0.146-0.377,0.362-0.722,0.643-1.021c0.291-0.303,0.619-0.534,1-0.689
			c0.375-0.164,0.783-0.238,1.224-0.238c0.396,0,0.771,0.068,1.119,0.207c0.351,0.142,0.682,0.348,0.983,0.621v0.699
			c-0.303-0.349-0.625-0.603-0.975-0.771c-0.348-0.168-0.727-0.252-1.131-0.252c-0.729,0-1.336,0.252-1.809,0.759
			c-0.479,0.5-0.724,1.14-0.724,1.919c0,0.762,0.243,1.398,0.729,1.906c0.481,0.511,1.088,0.765,1.803,0.765
			c0.768,0,1.378-0.271,1.835-0.812c0.456-0.537,0.683-1.266,0.683-2.186V80.705L150.511,80.705z"/>
		<path fill="#FFFFFF" d="M157.802,89.735v-2.738c0-0.917-0.221-1.643-0.68-2.182c-0.453-0.543-1.066-0.81-1.829-0.81
			c-0.726,0-1.325,0.251-1.806,0.761c-0.484,0.504-0.727,1.146-0.727,1.907c0,0.778,0.239,1.414,0.715,1.919
			c0.477,0.506,1.082,0.756,1.814,0.756c0.4,0,0.773-0.082,1.13-0.254c0.345-0.168,0.668-0.427,0.974-0.767v0.69
			c-0.306,0.283-0.629,0.488-0.978,0.629c-0.356,0.131-0.729,0.199-1.126,0.199c-0.445,0-0.854-0.076-1.23-0.236
			c-0.381-0.157-0.713-0.385-0.99-0.689c-0.283-0.302-0.495-0.643-0.646-1.025c-0.146-0.379-0.22-0.783-0.22-1.207
			c0-0.916,0.288-1.678,0.867-2.271c0.577-0.596,1.309-0.895,2.188-0.895c0.549,0,1.057,0.131,1.514,0.394
			c0.457,0.258,0.843,0.631,1.142,1.123c0.146,0.241,0.25,0.522,0.317,0.845c0.066,0.322,0.103,0.709,0.103,1.153v2.696
			L157.802,89.735L157.802,89.735z"/>
	</g>
	<line fill="none" stroke="#FFFFFF" stroke-width="0.8733" x1="27.816" y1="76.928" x2="182.857" y2="76.928"/>
</g>
</svg>
